<svg width="441" height="252" viewBox="0 0 441 252" fill="none" xmlns="http://www.w3.org/2000/svg">
<g clip-path="url(#clip0_298_216)">
<path d="M368 129.943C288.602 103.715 236.549 90.759 151 73.5146C121.796 73.5907 116.835 72.8534 89.5 73.09C59.8374 80.3456 16.8756 91.8342 0 113.728C0.971941 121.882 0.968034 124.763 0 134.047C16.2691 151.739 57.322 172.691 88 179.043C115.755 179.057 122.164 178.226 151 178.013C235.323 164.898 287.498 154.173 368 129.943Z" fill="white"/>
<path d="M237.109 123.961L232.488 116.212L230 105.094C240.229 101.441 245.698 99.7391 251.326 102.061C266.895 102.924 277.028 104.47 297.177 108.8C306.223 115.224 308.56 118.966 306.063 125.982C304.479 134.64 302.765 139.062 295.044 144.513L291.49 137.774L275.14 151.251C259.606 155.063 249.949 156.537 232.488 159C230.636 151.227 231.06 147.347 237.109 142.154L247.416 137.774V132.047V125.982L237.109 123.961Z" fill="#AA0B04"/>
<path d="M296.77 118.73C297.878 116.807 297.938 115.652 296.77 113.442C294.919 111.953 293.482 111.119 291.234 110.347C294.298 114.541 294.06 117.267 291.331 122.732C293.565 122.097 295.064 121.13 296.77 118.73Z" fill="#541411"/>
<path d="M289 109.664V123.263C289.867 123.096 290.635 122.93 291.331 122.732C294.06 117.267 294.298 114.541 291.234 110.347C290.57 110.119 289.836 109.896 289 109.664Z" fill="url(#paint0_linear_298_216)"/>
<path d="M296.77 132.33C297.878 130.407 297.938 129.251 296.77 127.041C294.919 125.553 293.482 124.718 291.234 123.946C294.298 128.141 294.06 130.866 291.331 136.332C293.565 135.696 295.064 134.729 296.77 132.33Z" fill="#541411"/>
<path d="M289 123.264V136.863C289.867 136.696 290.635 136.53 291.331 136.332C294.06 130.866 294.298 128.141 291.234 123.946C290.57 123.718 289.836 123.496 289 123.264Z" fill="url(#paint1_linear_298_216)"/>
<path d="M291.77 114.035C292.878 112.501 292.938 111.579 291.77 109.815C289.919 108.627 288.482 107.962 286.234 107.345C289.298 110.692 289.06 112.867 286.331 117.229C288.565 116.721 290.064 115.95 291.77 114.035Z" fill="#541411"/>
<path d="M284 106.801V117.652C284.867 117.519 285.635 117.387 286.331 117.229C289.06 112.867 289.298 110.692 286.234 107.345C285.57 107.164 284.836 106.986 284 106.801Z" fill="url(#paint2_linear_298_216)"/>
<path d="M291.77 124.887C292.878 123.352 292.938 122.43 291.77 120.667C289.919 119.479 288.482 118.813 286.234 118.197C289.298 121.544 289.06 123.719 286.331 128.08C288.565 127.573 290.064 126.801 291.77 124.887Z" fill="#541411"/>
<path d="M284 117.652V128.504C284.867 128.371 285.635 128.238 286.331 128.08C289.06 123.719 289.298 121.544 286.234 118.197C285.57 118.015 284.836 117.838 284 117.652Z" fill="url(#paint3_linear_298_216)"/>
<path d="M291.77 136.824C292.878 135.29 292.938 134.368 291.77 132.604C289.919 131.416 288.482 130.751 286.234 130.135C289.298 133.481 289.06 135.656 286.331 140.018C288.565 139.511 290.064 138.739 291.77 136.824Z" fill="#541411"/>
<path d="M284 129.59V140.441C284.867 140.308 285.635 140.176 286.331 140.018C289.06 135.656 289.298 133.481 286.234 130.135C285.57 129.953 284.836 129.775 284 129.59Z" fill="url(#paint4_linear_298_216)"/>
<path d="M284.77 120.935C285.878 118.283 285.938 116.688 284.77 113.64C282.919 111.587 281.482 110.436 279.234 109.371C282.298 115.156 282.06 118.916 279.331 126.455C281.565 125.578 283.064 124.244 284.77 120.935Z" fill="#541411"/>
<path d="M277 108.43V127.187C277.867 126.957 278.635 126.728 279.331 126.455C282.06 118.916 282.298 115.156 279.234 109.371C278.57 109.057 277.836 108.75 277 108.43Z" fill="url(#paint5_linear_298_216)"/>
<path d="M284.77 139.692C285.878 137.04 285.938 135.446 284.77 132.398C282.919 130.345 281.482 129.194 279.234 128.129C282.298 133.914 282.06 137.674 279.331 145.213C281.565 144.336 283.064 143.002 284.77 139.692Z" fill="#541411"/>
<path d="M277 127.188V145.945C277.867 145.715 278.635 145.486 279.331 145.213C282.06 137.674 282.298 133.914 279.234 128.129C278.57 127.815 277.836 127.508 277 127.188Z" fill="url(#paint6_linear_298_216)"/>
<path d="M279.77 114.459C280.878 112.343 280.938 111.071 279.77 108.638C277.919 107 276.482 106.082 274.234 105.232C277.298 109.848 277.06 112.848 274.331 118.864C276.565 118.164 278.064 117.1 279.77 114.459Z" fill="#541411"/>
<path d="M272 104.48V119.448C272.867 119.264 273.635 119.082 274.331 118.864C277.06 112.848 277.298 109.848 274.234 105.232C273.57 104.981 272.836 104.736 272 104.48Z" fill="url(#paint7_linear_298_216)"/>
<path d="M279.77 129.426C280.878 127.31 280.938 126.037 279.77 123.605C277.919 121.967 276.482 121.048 274.234 120.199C277.298 124.815 277.06 127.815 274.331 133.831C276.565 133.131 278.064 132.067 279.77 129.426Z" fill="#541411"/>
<path d="M272 119.447V134.415C272.867 134.231 273.635 134.049 274.331 133.831C277.06 127.815 277.298 124.815 274.234 120.199C273.57 119.948 272.836 119.703 272 119.447Z" fill="url(#paint8_linear_298_216)"/>
<path d="M279.77 145.891C280.878 143.774 280.938 142.502 279.77 140.07C277.919 138.432 276.482 137.513 274.234 136.663C277.298 141.28 277.06 144.28 274.331 150.295C276.565 149.596 278.064 148.532 279.77 145.891Z" fill="#541411"/>
<path d="M272 135.912V150.88C272.867 150.696 273.635 150.513 274.331 150.295C277.06 144.28 277.298 141.28 274.234 136.663C273.57 136.413 272.836 136.168 272 135.912Z" fill="url(#paint9_linear_298_216)"/>
<path d="M273.77 121.42C274.878 118.502 274.938 116.749 273.77 113.395C271.919 111.137 270.482 109.871 268.234 108.7C271.298 115.063 271.06 119.199 268.331 127.492C270.565 126.527 272.064 125.06 273.77 121.42Z" fill="#541411"/>
<path d="M266 107.664V128.297C266.867 128.044 267.635 127.792 268.331 127.492C271.06 119.199 271.298 115.063 268.234 108.7C267.57 108.354 266.836 108.016 266 107.664Z" fill="url(#paint10_linear_298_216)"/>
<path d="M273.77 142.052C274.878 139.135 274.938 137.381 273.77 134.028C271.919 131.77 270.482 130.504 268.234 129.333C271.298 135.696 271.06 139.832 268.331 148.124C270.565 147.16 272.064 145.693 273.77 142.052Z" fill="#541411"/>
<path d="M266 128.297V148.93C266.867 148.677 267.635 148.425 268.331 148.124C271.06 139.832 271.298 135.696 268.234 129.333C267.57 128.987 266.836 128.649 266 128.297Z" fill="url(#paint11_linear_298_216)"/>
<path d="M268.77 114.297C269.878 111.969 269.938 110.569 268.77 107.894C266.919 106.092 265.482 105.082 263.234 104.147C266.298 109.225 266.06 112.525 263.331 119.142C265.565 118.372 267.064 117.202 268.77 114.297Z" fill="#541411"/>
<path d="M261 103.32V119.785C261.867 119.583 262.635 119.382 263.331 119.142C266.06 112.525 266.298 109.225 263.234 104.147C262.57 103.871 261.836 103.602 261 103.32Z" fill="url(#paint12_linear_298_216)"/>
<path d="M268.77 130.761C269.878 128.434 269.938 127.034 268.77 124.359C266.919 122.557 265.482 121.546 263.234 120.612C266.298 125.69 266.06 128.99 263.331 135.607C265.565 134.837 267.064 133.666 268.77 130.761Z" fill="#541411"/>
<path d="M261 119.785V136.25C261.867 136.047 262.635 135.847 263.331 135.607C266.06 128.99 266.298 125.69 263.234 120.612C262.57 120.336 261.836 120.066 261 119.785Z" fill="url(#paint13_linear_298_216)"/>
<path d="M268.77 148.873C269.878 146.545 269.938 145.146 268.77 142.47C266.919 140.668 265.482 139.658 263.234 138.723C266.298 143.801 266.06 147.101 263.331 153.718C265.565 152.949 267.064 151.778 268.77 148.873Z" fill="#541411"/>
<path d="M261 137.896V154.361C261.867 154.159 262.635 153.958 263.331 153.718C266.06 147.101 266.298 143.801 263.234 138.723C262.57 138.447 261.836 138.178 261 137.896Z" fill="url(#paint14_linear_298_216)"/>
<path d="M262.77 121.082C263.878 118.032 263.938 116.199 262.77 112.693C260.919 110.332 259.482 109.009 257.234 107.784C260.298 114.437 260.06 118.761 257.331 127.43C259.565 126.422 261.064 124.888 262.77 121.082Z" fill="#541411"/>
<path d="M255 106.701V128.272C255.867 128.007 256.635 127.744 257.331 127.43C260.06 118.761 260.298 114.437 257.234 107.784C256.57 107.422 255.836 107.07 255 106.701Z" fill="url(#paint15_linear_298_216)"/>
<path d="M262.77 142.652C263.878 139.602 263.938 137.769 262.77 134.263C260.919 131.902 259.482 130.579 257.234 129.354C260.298 136.007 260.06 140.331 257.331 149C259.565 147.992 261.064 146.458 262.77 142.652Z" fill="#541411"/>
<path d="M255 128.271V149.843C255.867 149.578 256.635 149.314 257.331 149C260.06 140.331 260.298 136.007 257.234 129.354C256.57 128.993 255.836 128.64 255 128.271Z" fill="url(#paint16_linear_298_216)"/>
<path d="M257.77 113.635C258.878 111.202 258.938 109.739 257.77 106.942C255.919 105.058 254.482 104.001 252.234 103.024C255.298 108.333 255.06 111.783 252.331 118.701C254.565 117.896 256.064 116.672 257.77 113.635Z" fill="#541411"/>
<path d="M250 102.16V119.373C250.867 119.162 251.635 118.952 252.331 118.701C255.06 111.783 255.298 108.333 252.234 103.024C251.57 102.736 250.836 102.454 250 102.16Z" fill="url(#paint17_linear_298_216)"/>
<path d="M257.77 130.848C258.878 128.415 258.938 126.952 257.77 124.154C255.919 122.27 254.482 121.214 252.234 120.237C255.298 125.546 255.06 128.996 252.331 135.914C254.565 135.109 256.064 133.885 257.77 130.848Z" fill="#541411"/>
<path d="M250 119.373V136.586C250.867 136.375 251.635 136.165 252.331 135.914C255.06 128.996 255.298 125.546 252.234 120.237C251.57 119.949 250.836 119.667 250 119.373Z" fill="url(#paint18_linear_298_216)"/>
<path d="M257.77 149.782C258.878 147.348 258.938 145.885 257.77 143.088C255.919 141.204 254.482 140.148 252.234 139.171C255.298 144.479 255.06 147.93 252.331 154.847C254.565 154.043 256.064 152.819 257.77 149.782Z" fill="#541411"/>
<path d="M250 138.307V155.52C250.867 155.308 251.635 155.098 252.331 154.847C255.06 147.93 255.298 144.479 252.234 139.171C251.57 138.882 250.836 138.601 250 138.307Z" fill="url(#paint19_linear_298_216)"/>
<path d="M104.971 81L96.1366 94.5227L94.8816 101.556L94.2371 105.167L81.1651 106.905L73.9031 109.66H69.5714L67.5747 112.944V119.762H72.9946L67.5747 127.111L75.3914 125.884L79.2714 129.056L81.1651 122.534H85.0914L83.4286 133.537L95.0551 158.946C102.023 164.462 104.873 165.632 113.677 164.068L135.325 166L154.428 147.007L150.343 119.762L138.904 109.66C139.328 102.763 139.488 98.9561 132.095 98.027C132.614 94.5236 129.022 94.0174 125.473 94.5227L115.209 81H104.971Z" fill="#8A0600"/>
<path d="M81.1651 88.231L77.0799 91.5984L79.2714 101.556L85.0914 100.476L94.8816 101.556L96.1366 94.5227L95.0551 88.231H81.1651Z" fill="#8A0600"/>
<path d="M41.9464 103.843L31.597 106.292L30.5076 114.864C27.3798 117.431 27.7417 120.412 28.6011 125.884C29.5472 132.552 30.2558 135.739 32.6864 137.823L44.9423 147.007C50.3102 153.952 57.4361 151.977 67.5747 147.007C69.8553 148.424 71.9159 149.934 73.9031 151.391C80.1575 155.976 85.6851 160.028 95.0551 158.946L83.4286 133.537L85.0914 122.534H81.1651L79.2714 129.056L75.3914 125.884L67.5747 127.111L72.9946 119.762H67.5747V112.944L69.5714 109.66H73.9031L81.1651 106.905L94.2371 105.167L94.8816 101.556L85.0914 100.476L79.2714 101.556L77.0799 91.5984L72.9946 98.027C73.6979 99.291 66.4146 106.412 60.7387 103.843C59.5931 102.075 58.3957 101.295 54.747 100.476L47.6658 98.027L41.9464 103.843Z" fill="#FE0000"/>
<path d="M160.692 119.762H150.343L154.428 147.007H166.956L163.688 156.803H172.676L174.582 162.619C187.265 161.696 194.303 161.048 203.451 153.742C209.465 152.94 212.042 151.472 215.163 147.007C219.353 142.68 220.026 139.981 220.61 135.068L212.711 133.537C210.043 128.477 205.417 129.2 196.37 131.395C194.389 127.804 191.244 126.875 184.387 125.884V122.534H220.61C223.646 120.472 221.197 113.025 218.158 106.905L215.163 100.476C214.08 96.9508 209.767 96.0924 202.879 94.7214C198.937 93.9366 194.15 92.9839 188.643 91.267H168.712C167.892 93.6823 166.893 94.3951 165.999 95.0324C164.859 95.8451 163.892 96.5353 163.688 100.476C161.267 101.743 161.091 104.221 160.84 107.752L160.839 107.754C160.796 108.359 160.751 108.994 160.692 109.66V119.762Z" fill="#FE0000"/>
<path d="M149.279 126.563C150.244 125.094 150.296 124.211 149.279 122.523C147.665 121.386 146.413 120.748 144.454 120.158C147.124 123.363 146.917 125.445 144.539 129.62C146.486 129.135 147.792 128.396 149.279 126.563Z" fill="#541411"/>
<path d="M142.507 119.637V130.026C143.263 129.898 143.932 129.772 144.539 129.62C146.917 125.445 147.124 123.363 144.454 120.158C143.876 119.984 143.236 119.814 142.507 119.637Z" fill="url(#paint20_linear_298_216)"/>
<path d="M149.279 136.952C150.244 135.483 150.296 134.6 149.279 132.911C147.665 131.774 146.413 131.137 144.454 130.547C147.124 133.751 146.917 135.834 144.539 140.009C146.486 139.524 147.792 138.785 149.279 136.952Z" fill="#541411"/>
<path d="M142.507 130.025V140.415C143.263 140.287 143.932 140.16 144.539 140.009C146.917 135.834 147.124 133.751 144.454 130.547C143.876 130.373 143.236 130.203 142.507 130.025Z" fill="url(#paint21_linear_298_216)"/>
<path d="M149.279 148.381C150.244 146.912 150.296 146.029 149.279 144.341C147.665 143.204 146.413 142.566 144.454 141.977C147.124 145.181 146.917 147.263 144.539 151.439C146.486 150.953 147.792 150.214 149.279 148.381Z" fill="#541411"/>
<path d="M142.507 141.455V151.844C143.263 151.717 143.932 151.59 144.539 151.439C146.917 147.263 147.124 145.181 144.454 141.977C143.876 141.802 143.236 141.633 142.507 141.455Z" fill="url(#paint22_linear_298_216)"/>
<path d="M144.547 121.733C145.512 120.264 145.565 119.381 144.547 117.693C142.933 116.555 141.681 115.918 139.722 115.328C142.393 118.532 142.185 120.615 139.807 124.79C141.754 124.305 143.06 123.566 144.547 121.733Z" fill="#541411"/>
<path d="M137.776 114.807V125.196C138.532 125.068 139.2 124.942 139.807 124.79C142.185 120.615 142.393 118.532 139.722 115.328C139.144 115.154 138.504 114.984 137.776 114.807Z" fill="url(#paint23_linear_298_216)"/>
<path d="M144.547 132.122C145.512 130.653 145.565 129.77 144.547 128.081C142.933 126.944 141.681 126.307 139.722 125.717C142.393 128.921 142.185 131.004 139.807 135.179C141.754 134.693 143.06 133.955 144.547 132.122Z" fill="#541411"/>
<path d="M137.776 125.195V135.585C138.532 135.457 139.2 135.33 139.807 135.179C142.185 131.004 142.393 128.921 139.722 125.717C139.144 125.543 138.504 125.373 137.776 125.195Z" fill="url(#paint24_linear_298_216)"/>
<path d="M144.547 143.551C145.512 142.082 145.565 141.199 144.547 139.511C142.933 138.374 141.681 137.736 139.722 137.147C142.393 140.351 142.185 142.433 139.807 146.609C141.754 146.123 143.06 145.384 144.547 143.551Z" fill="#541411"/>
<path d="M137.776 136.625V147.014C138.532 146.887 139.2 146.76 139.807 146.609C142.185 142.433 142.393 140.351 139.722 137.147C139.144 136.972 138.504 136.802 137.776 136.625Z" fill="url(#paint25_linear_298_216)"/>
<path d="M144.547 153.94C145.512 152.471 145.565 151.588 144.547 149.9C142.933 148.762 141.681 148.125 139.722 147.535C142.393 150.739 142.185 152.822 139.807 156.997C141.754 156.512 143.06 155.773 144.547 153.94Z" fill="#541411"/>
<path d="M137.776 147.014V157.403C138.532 157.275 139.2 157.149 139.807 156.997C142.185 152.822 142.393 150.739 139.722 147.535C139.144 147.361 138.504 147.191 137.776 147.014Z" fill="url(#paint26_linear_298_216)"/>
<path d="M140.762 115.938C141.727 114.469 141.78 113.586 140.762 111.898C139.148 110.761 137.896 110.123 135.937 109.533C138.608 112.738 138.4 114.82 136.022 118.995C137.969 118.51 139.275 117.771 140.762 115.938Z" fill="#541411"/>
<path d="M133.99 109.012V119.401C134.746 119.273 135.415 119.147 136.022 118.995C138.4 114.82 138.608 112.738 135.937 109.533C135.359 109.359 134.719 109.189 133.99 109.012Z" fill="url(#paint27_linear_298_216)"/>
<path d="M140.762 126.327C141.727 124.858 141.78 123.975 140.762 122.286C139.148 121.149 137.896 120.512 135.937 119.922C138.608 123.126 138.4 125.209 136.022 129.384C137.969 128.899 139.275 128.16 140.762 126.327Z" fill="#541411"/>
<path d="M133.99 119.4V129.79C134.746 129.662 135.415 129.535 136.022 129.384C138.4 125.209 138.608 123.126 135.937 119.922C135.359 119.748 134.719 119.578 133.99 119.4Z" fill="url(#paint28_linear_298_216)"/>
<path d="M140.762 137.756C141.727 136.287 141.78 135.404 140.762 133.716C139.148 132.579 137.896 131.941 135.937 131.352C138.608 134.556 138.4 136.638 136.022 140.814C137.969 140.328 139.275 139.589 140.762 137.756Z" fill="#541411"/>
<path d="M133.99 130.83V141.219C134.746 141.092 135.415 140.965 136.022 140.814C138.4 136.638 138.608 134.556 135.937 131.352C135.359 131.177 134.719 131.008 133.99 130.83Z" fill="url(#paint29_linear_298_216)"/>
<path d="M140.762 148.145C141.727 146.676 141.78 145.793 140.762 144.105C139.148 142.968 137.896 142.33 135.937 141.74C138.608 144.945 138.4 147.027 136.022 151.202C137.969 150.717 139.275 149.978 140.762 148.145Z" fill="#541411"/>
<path d="M133.99 141.219V151.608C134.746 151.481 135.415 151.354 136.022 151.202C138.4 147.027 138.608 144.945 135.937 141.74C135.359 141.566 134.719 141.396 133.99 141.219Z" fill="url(#paint30_linear_298_216)"/>
<path d="M140.762 158.534C141.727 157.065 141.78 156.182 140.762 154.493C139.148 153.356 137.896 152.719 135.937 152.129C138.608 155.333 138.4 157.416 136.022 161.591C137.969 161.106 139.275 160.367 140.762 158.534Z" fill="#541411"/>
<path d="M133.99 151.607V161.997C134.746 161.869 135.415 161.742 136.022 161.591C138.4 157.416 138.608 155.333 135.937 152.129C135.359 151.955 134.719 151.785 133.99 151.607Z" fill="url(#paint31_linear_298_216)"/>
<path d="M135.651 109.592C136.616 108.123 136.669 107.24 135.651 105.552C134.038 104.415 132.785 103.777 130.827 103.188C133.497 106.392 133.29 108.474 130.911 112.65C132.858 112.164 134.164 111.425 135.651 109.592Z" fill="#541411"/>
<path d="M128.88 102.666V113.055C129.636 112.928 130.305 112.801 130.911 112.65C133.29 108.474 133.497 106.392 130.827 103.188C130.248 103.013 129.609 102.843 128.88 102.666Z" fill="url(#paint32_linear_298_216)"/>
<path d="M135.651 119.981C136.616 118.512 136.669 117.629 135.651 115.941C134.038 114.804 132.785 114.166 130.827 113.576C133.497 116.781 133.29 118.863 130.911 123.038C132.858 122.553 134.164 121.814 135.651 119.981Z" fill="#541411"/>
<path d="M128.88 113.055V123.444C129.636 123.316 130.305 123.19 130.911 123.038C133.29 118.863 133.497 116.781 130.827 113.576C130.248 113.402 129.609 113.232 128.88 113.055Z" fill="url(#paint33_linear_298_216)"/>
<path d="M135.651 131.411C136.616 129.942 136.669 129.059 135.651 127.37C134.038 126.233 132.785 125.596 130.827 125.006C133.497 128.21 133.29 130.293 130.911 134.468C132.858 133.982 134.164 133.244 135.651 131.411Z" fill="#541411"/>
<path d="M128.88 124.484V134.874C129.636 134.746 130.305 134.619 130.911 134.468C133.29 130.293 133.497 128.21 130.827 125.006C130.248 124.832 129.609 124.662 128.88 124.484Z" fill="url(#paint34_linear_298_216)"/>
<path d="M135.651 141.799C136.616 140.33 136.669 139.447 135.651 137.759C134.038 136.622 132.785 135.984 130.827 135.395C133.497 138.599 133.29 140.681 130.911 144.857C132.858 144.371 134.164 143.632 135.651 141.799Z" fill="#541411"/>
<path d="M128.88 134.873V145.262C129.636 145.135 130.305 145.008 130.911 144.857C133.29 140.681 133.497 138.599 130.827 135.395C130.248 135.22 129.609 135.05 128.88 134.873Z" fill="url(#paint35_linear_298_216)"/>
<path d="M135.651 152.188C136.616 150.719 136.669 149.836 135.651 148.148C134.038 147.011 132.785 146.373 130.827 145.783C133.497 148.988 133.29 151.07 130.911 155.245C132.858 154.76 134.164 154.021 135.651 152.188Z" fill="#541411"/>
<path d="M128.88 145.262V155.651C129.636 155.523 130.305 155.397 130.911 155.245C133.29 151.07 133.497 148.988 130.827 145.783C130.248 145.609 129.609 145.439 128.88 145.262Z" fill="url(#paint36_linear_298_216)"/>
<path d="M130.663 114.736C131.628 113.245 131.681 112.35 130.663 110.637C129.049 109.483 127.797 108.836 125.838 108.238C128.509 111.489 128.301 113.601 125.923 117.837C127.87 117.345 129.176 116.595 130.663 114.736Z" fill="#541411"/>
<path d="M123.891 107.709V118.249C124.647 118.119 125.316 117.991 125.923 117.837C128.301 113.601 128.509 111.489 125.838 108.238C125.26 108.061 124.62 107.889 123.891 107.709Z" fill="url(#paint37_linear_298_216)"/>
<path d="M130.663 105.249C131.628 103.759 131.681 102.863 130.663 101.15C129.049 99.9968 127.797 99.3502 125.838 98.7517C128.509 102.002 128.301 104.115 125.923 108.351C127.87 107.858 129.176 107.109 130.663 105.249Z" fill="#541411"/>
<path d="M123.891 98.2227V108.763C124.647 108.633 125.316 108.505 125.923 108.351C128.301 104.115 128.509 102.002 125.838 98.7517C125.26 98.5751 124.62 98.4027 123.891 98.2227Z" fill="url(#paint38_linear_298_216)"/>
<path d="M130.663 125.275C131.628 123.784 131.681 122.889 130.663 121.176C129.049 120.022 127.797 119.376 125.838 118.777C128.509 122.028 128.301 124.14 125.923 128.376C127.87 127.884 129.176 127.134 130.663 125.275Z" fill="#541411"/>
<path d="M123.891 118.248V128.788C124.647 128.659 125.316 128.53 125.923 128.376C128.301 124.14 128.509 122.028 125.838 118.777C125.26 118.6 124.62 118.428 123.891 118.248Z" fill="url(#paint39_linear_298_216)"/>
<path d="M130.663 136.868C131.628 135.378 131.681 134.482 130.663 132.77C129.049 131.616 127.797 130.969 125.838 130.371C128.509 133.622 128.301 135.734 125.923 139.97C127.87 139.478 129.176 138.728 130.663 136.868Z" fill="#541411"/>
<path d="M123.891 129.842V140.382C124.647 140.252 125.316 140.124 125.923 139.97C128.301 135.734 128.509 133.622 125.838 130.371C125.26 130.194 124.62 130.022 123.891 129.842Z" fill="url(#paint40_linear_298_216)"/>
<path d="M130.663 147.409C131.628 145.919 131.681 145.023 130.663 143.311C129.049 142.157 127.797 141.51 125.838 140.912C128.509 144.163 128.301 146.275 125.923 150.511C127.87 150.019 129.176 149.269 130.663 147.409Z" fill="#541411"/>
<path d="M123.891 140.383V150.923C124.647 150.793 125.316 150.665 125.923 150.511C128.301 146.275 128.509 144.163 125.838 140.912C125.26 140.735 124.62 140.563 123.891 140.383Z" fill="url(#paint41_linear_298_216)"/>
<path d="M130.663 157.949C131.628 156.458 131.681 155.562 130.663 153.85C129.049 152.696 127.797 152.049 125.838 151.451C128.509 154.702 128.301 156.814 125.923 161.05C127.87 160.558 129.176 159.808 130.663 157.949Z" fill="#541411"/>
<path d="M123.891 150.922V161.462C124.647 161.332 125.316 161.204 125.923 161.05C128.301 156.814 128.509 154.702 125.838 151.451C125.26 151.274 124.62 151.102 123.891 150.922Z" fill="url(#paint42_linear_298_216)"/>
<path d="M126.783 110.282C127.748 108.843 127.801 107.978 126.783 106.324C125.169 105.21 123.917 104.585 121.958 104.007C124.629 107.147 124.421 109.187 122.043 113.278C123.99 112.802 125.296 112.078 126.783 110.282Z" fill="#541411"/>
<path d="M120.011 103.496V113.676C120.767 113.551 121.436 113.426 122.043 113.278C124.421 109.187 124.629 107.147 121.958 104.007C121.38 103.836 120.74 103.67 120.011 103.496Z" fill="url(#paint43_linear_298_216)"/>
<path d="M126.783 101.12C127.748 99.6811 127.801 98.8159 126.783 97.1616C125.169 96.0475 123.917 95.4229 121.958 94.845C124.629 97.9845 124.421 100.025 122.043 104.116C123.99 103.64 125.296 102.916 126.783 101.12Z" fill="#541411"/>
<path d="M120.011 94.334V104.513C120.767 104.388 121.436 104.264 122.043 104.116C124.421 100.025 124.629 97.9845 121.958 94.845C121.38 94.6744 120.74 94.5078 120.011 94.334Z" fill="url(#paint44_linear_298_216)"/>
<path d="M126.783 120.462C127.748 119.023 127.801 118.158 126.783 116.503C125.169 115.389 123.917 114.765 121.958 114.187C124.629 117.326 124.421 119.367 122.043 123.458C123.99 122.982 125.296 122.258 126.783 120.462Z" fill="#541411"/>
<path d="M120.011 113.676V123.855C120.767 123.73 121.436 123.606 122.043 123.458C124.421 119.367 124.629 117.326 121.958 114.187C121.38 114.016 120.74 113.85 120.011 113.676Z" fill="url(#paint45_linear_298_216)"/>
<path d="M126.783 131.659C127.748 130.22 127.801 129.355 126.783 127.701C125.169 126.587 123.917 125.962 121.958 125.384C124.629 128.524 124.421 130.564 122.043 134.655C123.99 134.179 125.296 133.455 126.783 131.659Z" fill="#541411"/>
<path d="M120.011 124.873V135.053C120.767 134.927 121.436 134.803 122.043 134.655C124.421 130.564 124.629 128.524 121.958 125.384C121.38 125.213 120.74 125.047 120.011 124.873Z" fill="url(#paint46_linear_298_216)"/>
<path d="M126.783 141.839C127.748 140.4 127.801 139.535 126.783 137.88C125.169 136.766 123.917 136.142 121.958 135.564C124.629 138.703 124.421 140.744 122.043 144.835C123.99 144.359 125.296 143.635 126.783 141.839Z" fill="#541411"/>
<path d="M120.011 135.053V145.232C120.767 145.107 121.436 144.983 122.043 144.835C124.421 140.744 124.629 138.703 121.958 135.564C121.38 135.393 120.74 135.227 120.011 135.053Z" fill="url(#paint47_linear_298_216)"/>
<path d="M126.783 152.017C127.748 150.578 127.801 149.712 126.783 148.058C125.169 146.944 123.917 146.319 121.958 145.741C124.629 148.881 124.421 150.921 122.043 155.012C123.99 154.537 125.296 153.813 126.783 152.017Z" fill="#541411"/>
<path d="M120.011 145.23V155.41C120.767 155.285 121.436 155.161 122.043 155.012C124.421 150.921 124.629 148.881 121.958 145.741C121.38 145.571 120.74 145.404 120.011 145.23Z" fill="url(#paint48_linear_298_216)"/>
<path d="M126.783 160.835C127.748 159.396 127.801 158.531 126.783 156.876C125.169 155.762 123.917 155.138 121.958 154.56C124.629 157.699 124.421 159.74 122.043 163.831C123.99 163.355 125.296 162.631 126.783 160.835Z" fill="#541411"/>
<path d="M120.011 154.049V164.228C120.767 164.103 121.436 163.979 122.043 163.831C124.421 159.74 124.629 157.699 121.958 154.56C121.38 154.389 120.74 154.223 120.011 154.049Z" fill="url(#paint49_linear_298_216)"/>
<path d="M122.002 105.24C122.967 103.749 123.02 102.853 122.002 101.141C120.388 99.9871 119.136 99.3404 117.177 98.742C119.848 101.993 119.64 104.105 117.262 108.341C119.209 107.849 120.515 107.099 122.002 105.24Z" fill="#541411"/>
<path d="M115.23 98.2129V108.753C115.986 108.623 116.655 108.495 117.262 108.341C119.64 104.105 119.848 101.993 117.177 98.742C116.599 98.5653 115.959 98.3929 115.23 98.2129Z" fill="url(#paint50_linear_298_216)"/>
<path d="M122.002 95.7532C122.967 94.263 123.02 93.3672 122.002 91.6543C120.388 90.5007 119.136 89.8541 117.177 89.2556C119.848 92.5064 119.64 94.6189 117.262 98.855C119.209 98.3623 120.515 97.6129 122.002 95.7532Z" fill="#541411"/>
<path d="M115.23 88.7266V99.2665C115.986 99.1371 116.655 99.0085 117.262 98.855C119.64 94.6189 119.848 92.5064 117.177 89.2556C116.599 89.079 115.959 88.9066 115.23 88.7266Z" fill="url(#paint51_linear_298_216)"/>
<path d="M122.002 115.779C122.967 114.288 123.02 113.393 122.002 111.68C120.388 110.526 119.136 109.879 117.177 109.281C119.848 112.532 119.64 114.644 117.262 118.88C119.209 118.388 120.515 117.638 122.002 115.779Z" fill="#541411"/>
<path d="M115.23 108.752V119.292C115.986 119.162 116.655 119.034 117.262 118.88C119.64 114.644 119.848 112.532 117.177 109.281C116.599 109.104 115.959 108.932 115.23 108.752Z" fill="url(#paint52_linear_298_216)"/>
<path d="M122.002 127.372C122.967 125.882 123.02 124.986 122.002 123.273C120.388 122.12 119.136 121.473 117.177 120.875C119.848 124.126 119.64 126.238 117.262 130.474C119.209 129.981 120.515 129.232 122.002 127.372Z" fill="#541411"/>
<path d="M115.23 120.346V130.886C115.986 130.756 116.655 130.628 117.262 130.474C119.64 126.238 119.848 124.126 117.177 120.875C116.599 120.698 115.959 120.526 115.23 120.346Z" fill="url(#paint53_linear_298_216)"/>
<path d="M122.002 137.913C122.967 136.423 123.02 135.527 122.002 133.814C120.388 132.661 119.136 132.014 117.177 131.416C119.848 134.667 119.64 136.779 117.262 141.015C119.209 140.522 120.515 139.773 122.002 137.913Z" fill="#541411"/>
<path d="M115.23 130.887V141.427C115.986 141.297 116.655 141.169 117.262 141.015C119.64 136.779 119.848 134.667 117.177 131.416C116.599 131.239 115.959 131.067 115.23 130.887Z" fill="url(#paint54_linear_298_216)"/>
<path d="M122.002 148.452C122.967 146.962 123.02 146.066 122.002 144.354C120.388 143.2 119.136 142.553 117.177 141.955C119.848 145.206 119.64 147.318 117.262 151.554C119.209 151.062 120.515 150.312 122.002 148.452Z" fill="#541411"/>
<path d="M115.23 141.426V151.966C115.986 151.836 116.655 151.708 117.262 151.554C119.64 147.318 119.848 145.206 117.177 141.955C116.599 141.778 115.959 141.606 115.23 141.426Z" fill="url(#paint55_linear_298_216)"/>
<path d="M122.002 157.583C122.967 156.093 123.02 155.197 122.002 153.484C120.388 152.331 119.136 151.684 117.177 151.086C119.848 154.336 119.64 156.449 117.262 160.685C119.209 160.192 120.515 159.443 122.002 157.583Z" fill="#541411"/>
<path d="M115.23 150.557V161.097C115.986 160.967 116.655 160.839 117.262 160.685C119.64 156.449 119.848 154.336 117.177 151.086C116.599 150.909 115.959 150.737 115.23 150.557Z" fill="url(#paint56_linear_298_216)"/>
<path d="M116.992 111.046C117.957 109.556 118.009 108.66 116.992 106.947C115.378 105.794 114.126 105.147 112.167 104.549C114.837 107.799 114.63 109.912 112.252 114.148C114.199 113.655 115.505 112.906 116.992 111.046Z" fill="#541411"/>
<path d="M110.22 104.02V114.559C110.976 114.43 111.645 114.301 112.252 114.148C114.63 109.912 114.837 107.799 112.167 104.549C111.589 104.372 110.949 104.2 110.22 104.02Z" fill="url(#paint57_linear_298_216)"/>
<path d="M116.992 101.56C117.957 100.07 118.009 99.1738 116.992 97.461C115.378 96.3074 114.126 95.6607 112.167 95.0623C114.837 98.313 114.63 100.426 112.252 104.662C114.199 104.169 115.505 103.42 116.992 101.56Z" fill="#541411"/>
<path d="M110.22 94.5332V105.073C110.976 104.944 111.645 104.815 112.252 104.662C114.63 100.426 114.837 98.313 112.167 95.0623C111.589 94.8856 110.949 94.7132 110.22 94.5332Z" fill="url(#paint58_linear_298_216)"/>
<path d="M116.992 121.585C117.957 120.095 118.009 119.199 116.992 117.486C115.378 116.333 114.126 115.686 112.167 115.088C114.837 118.338 114.63 120.451 112.252 124.687C114.199 124.194 115.505 123.445 116.992 121.585Z" fill="#541411"/>
<path d="M110.22 114.559V125.099C110.976 124.969 111.645 124.841 112.252 124.687C114.63 120.451 114.837 118.338 112.167 115.088C111.589 114.911 110.949 114.739 110.22 114.559Z" fill="url(#paint59_linear_298_216)"/>
<path d="M116.992 133.179C117.957 131.689 118.009 130.793 116.992 129.08C115.378 127.927 114.126 127.28 112.167 126.681C114.837 129.932 114.63 132.045 112.252 136.281C114.199 135.788 115.505 135.039 116.992 133.179Z" fill="#541411"/>
<path d="M110.22 126.152V136.692C110.976 136.563 111.645 136.434 112.252 136.281C114.63 132.045 114.837 129.932 112.167 126.681C111.589 126.505 110.949 126.332 110.22 126.152Z" fill="url(#paint60_linear_298_216)"/>
<path d="M116.992 143.72C117.957 142.23 118.009 141.334 116.992 139.621C115.378 138.468 114.126 137.821 112.167 137.222C114.837 140.473 114.63 142.586 112.252 146.822C114.199 146.329 115.505 145.58 116.992 143.72Z" fill="#541411"/>
<path d="M110.22 136.693V147.233C110.976 147.104 111.645 146.975 112.252 146.822C114.63 142.586 114.837 140.473 112.167 137.222C111.589 137.046 110.949 136.873 110.22 136.693Z" fill="url(#paint61_linear_298_216)"/>
<path d="M116.992 154.259C117.957 152.769 118.009 151.873 116.992 150.16C115.378 149.007 114.126 148.36 112.167 147.761C114.837 151.012 114.63 153.125 112.252 157.361C114.199 156.868 115.505 156.119 116.992 154.259Z" fill="#541411"/>
<path d="M110.22 147.232V157.772C110.976 157.643 111.645 157.514 112.252 157.361C114.63 153.125 114.837 151.012 112.167 147.761C111.589 147.585 110.949 147.412 110.22 147.232Z" fill="url(#paint62_linear_298_216)"/>
<path d="M111.982 107.694C112.947 106.225 112.999 105.342 111.982 103.654C110.368 102.516 109.116 101.879 107.157 101.289C109.827 104.493 109.62 106.576 107.242 110.751C109.189 110.266 110.495 109.527 111.982 107.694Z" fill="#541411"/>
<path d="M105.21 100.768V111.157C105.966 111.029 106.635 110.903 107.242 110.751C109.62 106.576 109.827 104.493 107.157 101.289C106.579 101.115 105.939 100.945 105.21 100.768Z" fill="url(#paint63_linear_298_216)"/>
<path d="M111.982 98.3423C112.947 96.8734 112.999 95.9903 111.982 94.302C110.368 93.1648 109.116 92.5274 107.157 91.9375C109.827 95.1418 109.62 97.2242 107.242 101.4C109.189 100.914 110.495 100.175 111.982 98.3423Z" fill="#541411"/>
<path d="M105.21 91.416V101.805C105.966 101.678 106.635 101.551 107.242 101.4C109.62 97.2242 109.827 95.1418 107.157 91.9375C106.579 91.7634 105.939 91.5935 105.21 91.416Z" fill="url(#paint64_linear_298_216)"/>
<path d="M111.425 88.893C112.39 87.4241 112.443 86.5411 111.425 84.8527C109.811 83.7156 108.559 83.0782 106.6 82.4883C109.271 85.6926 109.063 87.775 106.685 91.9505C108.632 91.4649 109.938 90.7261 111.425 88.893Z" fill="#541411"/>
<path d="M104.654 81.9668V92.3562C105.41 92.2286 106.078 92.1018 106.685 91.9505C109.063 87.775 109.271 85.6926 106.6 82.4883C106.022 82.3142 105.382 82.1442 104.654 81.9668Z" fill="url(#paint65_linear_298_216)"/>
<path d="M111.982 118.082C112.947 116.614 112.999 115.731 111.982 114.042C110.368 112.905 109.116 112.268 107.157 111.678C109.827 114.882 109.62 116.964 107.242 121.14C109.189 120.654 110.495 119.916 111.982 118.082Z" fill="#541411"/>
<path d="M105.21 111.156V121.546C105.966 121.418 106.635 121.291 107.242 121.14C109.62 116.964 109.827 114.882 107.157 111.678C106.579 111.504 105.939 111.334 105.21 111.156Z" fill="url(#paint66_linear_298_216)"/>
<path d="M111.982 129.51C112.947 128.041 112.999 127.158 111.982 125.47C110.368 124.333 109.116 123.695 107.157 123.105C109.827 126.31 109.62 128.392 107.242 132.568C109.189 132.082 110.495 131.343 111.982 129.51Z" fill="#541411"/>
<path d="M105.21 122.584V132.973C105.966 132.846 106.635 132.719 107.242 132.568C109.62 128.392 109.827 126.31 107.157 123.105C106.579 122.931 105.939 122.761 105.21 122.584Z" fill="url(#paint67_linear_298_216)"/>
<path d="M111.982 139.901C112.947 138.432 112.999 137.549 111.982 135.861C110.368 134.723 109.116 134.086 107.157 133.496C109.827 136.7 109.62 138.783 107.242 142.958C109.189 142.473 110.495 141.734 111.982 139.901Z" fill="#541411"/>
<path d="M105.21 132.975V143.364C105.966 143.236 106.635 143.11 107.242 142.958C109.62 138.783 109.827 136.7 107.157 133.496C106.579 133.322 105.939 133.152 105.21 132.975Z" fill="url(#paint68_linear_298_216)"/>
<path d="M111.982 150.29C112.947 148.821 112.999 147.938 111.982 146.249C110.368 145.112 109.116 144.475 107.157 143.885C109.827 147.089 109.62 149.171 107.242 153.347C109.189 152.861 110.495 152.123 111.982 150.29Z" fill="#541411"/>
<path d="M105.21 143.363V153.753C105.966 153.625 106.635 153.498 107.242 153.347C109.62 149.171 109.827 147.089 107.157 143.885C106.579 143.711 105.939 143.541 105.21 143.363Z" fill="url(#paint69_linear_298_216)"/>
<path d="M111.982 159.639C112.947 158.17 112.999 157.287 111.982 155.599C110.368 154.462 109.116 153.824 107.157 153.234C109.827 156.439 109.62 158.521 107.242 162.697C109.189 162.211 110.495 161.472 111.982 159.639Z" fill="#541411"/>
<path d="M105.21 152.713V163.102C105.966 162.975 106.635 162.848 107.242 162.697C109.62 158.521 109.827 156.439 107.157 153.234C106.579 153.06 105.939 152.89 105.21 152.713Z" fill="url(#paint70_linear_298_216)"/>
<path d="M106.972 112.887C107.937 111.418 107.989 110.535 106.972 108.847C105.358 107.71 104.106 107.072 102.147 106.482C104.817 109.687 104.61 111.769 102.232 115.945C104.179 115.459 105.485 114.72 106.972 112.887Z" fill="#541411"/>
<path d="M100.2 105.961V116.35C100.956 116.223 101.625 116.096 102.232 115.945C104.61 111.769 104.817 109.687 102.147 106.482C101.569 106.308 100.929 106.138 100.2 105.961Z" fill="url(#paint71_linear_298_216)"/>
<path d="M106.972 103.538C107.937 102.069 107.989 101.186 106.972 99.4973C105.358 98.3601 104.106 97.7227 102.147 97.1328C104.817 100.337 104.61 102.42 102.232 106.595C104.179 106.109 105.485 105.371 106.972 103.538Z" fill="#541411"/>
<path d="M100.2 96.6113V107.001C100.956 106.873 101.625 106.746 102.232 106.595C104.61 102.42 104.817 100.337 102.147 97.1328C101.569 96.9587 100.929 96.7888 100.2 96.6113Z" fill="url(#paint72_linear_298_216)"/>
<path d="M106.693 94.688C107.658 93.2191 107.711 92.336 106.693 90.6477C105.08 89.5105 103.827 88.8731 101.869 88.2832C104.539 91.4875 104.332 93.5699 101.953 97.7455C103.9 97.2598 105.206 96.5211 106.693 94.688Z" fill="#541411"/>
<path d="M99.922 87.7617V98.1511C100.678 98.0235 101.347 97.8968 101.953 97.7455C104.332 93.5699 104.539 91.4875 101.869 88.2832C101.29 88.1091 100.651 87.9392 99.922 87.7617Z" fill="url(#paint73_linear_298_216)"/>
<path d="M106.972 123.276C107.937 121.807 107.989 120.924 106.972 119.236C105.358 118.098 104.106 117.461 102.147 116.871C104.817 120.075 104.61 122.158 102.232 126.333C104.179 125.848 105.485 125.109 106.972 123.276Z" fill="#541411"/>
<path d="M100.2 116.35V126.739C100.956 126.611 101.625 126.485 102.232 126.333C104.61 122.158 104.817 120.075 102.147 116.871C101.569 116.697 100.929 116.527 100.2 116.35Z" fill="url(#paint74_linear_298_216)"/>
<path d="M106.972 134.706C107.937 133.237 107.989 132.354 106.972 130.665C105.358 129.528 104.106 128.891 102.147 128.301C104.817 131.505 104.61 133.587 102.232 137.763C104.179 137.277 105.485 136.539 106.972 134.706Z" fill="#541411"/>
<path d="M100.2 127.779V138.169C100.956 138.041 101.625 137.914 102.232 137.763C104.61 133.587 104.817 131.505 102.147 128.301C101.569 128.127 100.929 127.957 100.2 127.779Z" fill="url(#paint75_linear_298_216)"/>
<path d="M106.972 145.094C107.937 143.625 107.989 142.742 106.972 141.054C105.358 139.917 104.106 139.279 102.147 138.689C104.817 141.894 104.61 143.976 102.232 148.152C104.179 147.666 105.485 146.927 106.972 145.094Z" fill="#541411"/>
<path d="M100.2 138.168V148.557C100.956 148.43 101.625 148.303 102.232 148.152C104.61 143.976 104.817 141.894 102.147 138.689C101.569 138.515 100.929 138.345 100.2 138.168Z" fill="url(#paint76_linear_298_216)"/>
<path d="M106.972 155.483C107.937 154.014 107.989 153.131 106.972 151.443C105.358 150.305 104.106 149.668 102.147 149.078C104.817 152.282 104.61 154.365 102.232 158.54C104.179 158.055 105.485 157.316 106.972 155.483Z" fill="#541411"/>
<path d="M100.2 148.557V158.946C100.956 158.818 101.625 158.692 102.232 158.54C104.61 154.365 104.817 152.282 102.147 149.078C101.569 148.904 100.929 148.734 100.2 148.557Z" fill="url(#paint77_linear_298_216)"/>
<path d="M101.962 107.692C102.927 106.223 102.979 105.34 101.962 103.652C100.348 102.514 99.0958 101.877 97.1369 101.287C99.8075 104.491 99.5999 106.574 97.2217 110.749C99.1687 110.264 100.475 109.525 101.962 107.692Z" fill="#541411"/>
<path d="M95.1903 100.766V111.155C95.9463 111.027 96.6151 110.901 97.2217 110.749C99.5999 106.574 99.8075 104.491 97.1369 101.287C96.5587 101.113 95.919 100.943 95.1903 100.766Z" fill="url(#paint78_linear_298_216)"/>
<path d="M101.962 118.081C102.927 116.612 102.979 115.729 101.962 114.04C100.348 112.903 99.0958 112.266 97.1369 111.676C99.8075 114.88 99.5999 116.962 97.2217 121.138C99.1687 120.652 100.475 119.914 101.962 118.081Z" fill="#541411"/>
<path d="M95.1903 111.154V121.544C95.9463 121.416 96.6151 121.289 97.2217 121.138C99.5999 116.962 99.8075 114.88 97.1369 111.676C96.5587 111.502 95.919 111.332 95.1903 111.154Z" fill="url(#paint79_linear_298_216)"/>
<path d="M101.962 129.51C102.927 128.041 102.979 127.158 101.962 125.47C100.348 124.333 99.0958 123.695 97.1369 123.105C99.8075 126.31 99.5999 128.392 97.2217 132.568C99.1687 132.082 100.475 131.343 101.962 129.51Z" fill="#541411"/>
<path d="M95.1903 122.584V132.973C95.9463 132.846 96.6151 132.719 97.2217 132.568C99.5999 128.392 99.8075 126.31 97.1369 123.105C96.5587 122.931 95.919 122.761 95.1903 122.584Z" fill="url(#paint80_linear_298_216)"/>
<path d="M101.962 139.899C102.927 138.43 102.979 137.547 101.962 135.859C100.348 134.721 99.0958 134.084 97.1369 133.494C99.8075 136.698 99.5999 138.781 97.2217 142.956C99.1687 142.471 100.475 141.732 101.962 139.899Z" fill="#541411"/>
<path d="M95.1903 132.973V143.362C95.9463 143.234 96.6151 143.108 97.2217 142.956C99.5999 138.781 99.8075 136.698 97.1369 133.494C96.5587 133.32 95.919 133.15 95.1903 132.973Z" fill="url(#paint81_linear_298_216)"/>
<path d="M101.962 150.288C102.927 148.819 102.979 147.936 101.962 146.247C100.348 145.11 99.0958 144.473 97.1369 143.883C99.8075 147.087 99.5999 149.17 97.2217 153.345C99.1687 152.859 100.475 152.121 101.962 150.288Z" fill="#541411"/>
<path d="M95.1903 143.361V153.751C95.9463 153.623 96.6151 153.496 97.2217 153.345C99.5999 149.17 99.8075 147.087 97.1369 143.883C96.5587 143.709 95.919 143.539 95.1903 143.361Z" fill="url(#paint82_linear_298_216)"/>
<path d="M210.609 100.427C211.725 99.1349 211.786 98.3581 210.609 96.8728C208.743 95.8725 207.294 95.3117 205.029 94.7928C208.117 97.6117 207.877 99.4436 205.127 103.117C207.379 102.69 208.889 102.04 210.609 100.427Z" fill="#541411"/>
<path d="M202.778 94.334V103.474C203.652 103.362 204.425 103.25 205.127 103.117C207.877 99.4436 208.117 97.6117 205.029 94.7928C204.36 94.6396 203.62 94.4901 202.778 94.334Z" fill="url(#paint83_linear_298_216)"/>
<path d="M210.609 109.568C211.725 108.276 211.786 107.499 210.609 106.013C208.743 105.013 207.294 104.452 205.029 103.933C208.117 106.752 207.877 108.584 205.127 112.258C207.379 111.83 208.889 111.18 210.609 109.568Z" fill="#541411"/>
<path d="M202.778 103.475V112.614C203.652 112.502 204.425 112.391 205.127 112.258C207.877 108.584 208.117 106.752 205.029 103.933C204.36 103.78 203.62 103.631 202.778 103.475Z" fill="url(#paint84_linear_298_216)"/>
<path d="M210.609 119.621C211.725 118.328 211.786 117.551 210.609 116.066C208.743 115.066 207.294 114.505 205.029 113.986C208.117 116.805 207.877 118.637 205.127 122.31C207.379 121.883 208.889 121.233 210.609 119.621Z" fill="#541411"/>
<path d="M202.778 113.527V122.667C203.652 122.555 204.425 122.443 205.127 122.31C207.877 118.637 208.117 116.805 205.029 113.986C204.36 113.833 203.62 113.683 202.778 113.527Z" fill="url(#paint85_linear_298_216)"/>
<path d="M204.839 102.668C205.956 100.547 206.017 99.2723 204.839 96.8346C202.973 95.1929 201.525 94.2726 199.26 93.4209C202.348 98.0472 202.108 101.054 199.358 107.082C201.61 106.381 203.12 105.315 204.839 102.668Z" fill="#541411"/>
<path d="M197.009 92.668V107.668C197.883 107.484 198.656 107.301 199.358 107.082C202.108 101.054 202.348 98.0472 199.26 93.4209C198.591 93.1695 197.851 92.9242 197.009 92.668Z" fill="url(#paint86_linear_298_216)"/>
<path d="M204.839 117.668C205.956 115.547 206.017 114.272 204.839 111.835C202.973 110.193 201.525 109.273 199.26 108.421C202.348 113.047 202.108 116.054 199.358 122.082C201.61 121.381 203.12 120.315 204.839 117.668Z" fill="#541411"/>
<path d="M197.009 107.668V122.668C197.883 122.484 198.656 122.301 199.358 122.082C202.108 116.054 202.348 113.047 199.26 108.421C198.591 108.17 197.851 107.924 197.009 107.668Z" fill="url(#paint87_linear_298_216)"/>
<path d="M199.07 98.2472C200.186 96.8283 200.247 95.9753 199.07 94.3444C197.204 93.2459 195.756 92.6302 193.49 92.0604C196.579 95.1557 196.339 97.1672 193.589 101.201C195.84 100.732 197.35 100.018 199.07 98.2472Z" fill="#541411"/>
<path d="M191.239 91.5566V101.592C192.114 101.469 192.887 101.347 193.589 101.201C196.339 97.1672 196.579 95.1557 193.49 92.0604C192.822 91.8922 192.082 91.728 191.239 91.5566Z" fill="url(#paint88_linear_298_216)"/>
<path d="M199.07 108.282C200.186 106.863 200.247 106.01 199.07 104.38C197.204 103.281 195.756 102.665 193.49 102.096C196.579 105.191 196.339 107.202 193.589 111.236C195.84 110.767 197.35 110.053 199.07 108.282Z" fill="#541411"/>
<path d="M191.239 101.592V111.628C192.114 111.504 192.887 111.382 193.589 111.236C196.339 107.202 196.579 105.191 193.49 102.096C192.822 101.927 192.082 101.763 191.239 101.592Z" fill="url(#paint89_linear_298_216)"/>
<path d="M199.07 119.323C200.186 117.904 200.247 117.051 199.07 115.421C197.204 114.322 195.756 113.706 193.49 113.137C196.579 116.232 196.339 118.243 193.589 122.277C195.84 121.808 197.35 121.094 199.07 119.323Z" fill="#541411"/>
<path d="M191.239 112.633V122.669C192.114 122.545 192.887 122.423 193.589 122.277C196.339 118.243 196.579 116.232 193.49 113.137C192.822 112.968 192.082 112.804 191.239 112.633Z" fill="url(#paint90_linear_298_216)"/>
<path d="M193.301 102.852C194.417 100.81 194.478 99.5824 193.301 97.235C191.435 95.6541 189.987 94.7678 187.721 93.9477C190.81 98.4027 190.57 101.298 187.819 107.103C190.071 106.428 191.581 105.401 193.301 102.852Z" fill="#541411"/>
<path d="M185.47 93.2227V107.667C186.344 107.49 187.118 107.313 187.819 107.103C190.57 101.298 190.81 98.4027 187.721 93.9477C187.053 93.7057 186.313 93.4694 185.47 93.2227Z" fill="url(#paint91_linear_298_216)"/>
<path d="M193.301 117.298C194.417 115.255 194.478 114.028 193.301 111.68C191.435 110.099 189.987 109.213 187.721 108.393C190.81 112.848 190.57 115.743 187.819 121.548C190.071 120.873 191.581 119.846 193.301 117.298Z" fill="#541411"/>
<path d="M185.47 107.668V122.112C186.344 121.935 187.118 121.759 187.819 121.548C190.57 115.743 190.81 112.848 187.721 108.393C187.053 108.151 186.313 107.915 185.47 107.668Z" fill="url(#paint92_linear_298_216)"/>
<path d="M188.814 98.2894C189.93 96.7435 189.991 95.8141 188.814 94.0372C186.948 92.8405 185.5 92.1697 183.234 91.5488C186.323 94.9211 186.083 97.1127 183.332 101.507C185.584 100.996 187.094 100.219 188.814 98.2894Z" fill="#541411"/>
<path d="M180.983 91V101.934C181.857 101.8 182.631 101.666 183.332 101.507C186.083 97.1127 186.323 94.9211 183.234 91.5488C182.566 91.3656 181.826 91.1867 180.983 91Z" fill="url(#paint93_linear_298_216)"/>
<path d="M188.814 109.223C189.93 107.677 189.991 106.748 188.814 104.971C186.948 103.774 185.5 103.103 183.234 102.482C186.323 105.855 186.083 108.046 183.332 112.441C185.584 111.93 187.094 111.152 188.814 109.223Z" fill="#541411"/>
<path d="M180.983 101.934V112.868C181.857 112.733 182.631 112.6 183.332 112.441C186.083 108.046 186.323 105.855 183.234 102.482C182.566 102.299 181.826 102.12 180.983 101.934Z" fill="url(#paint94_linear_298_216)"/>
<path d="M188.814 121.25C189.93 119.704 189.991 118.775 188.814 116.998C186.948 115.801 185.5 115.131 183.234 114.51C186.323 117.882 186.083 120.074 183.332 124.468C185.584 123.957 187.094 123.179 188.814 121.25Z" fill="#541411"/>
<path d="M180.983 113.961V124.895C181.857 124.761 182.631 124.627 183.332 124.468C186.083 120.074 186.323 117.882 183.234 114.51C182.566 114.327 181.826 114.148 180.983 113.961Z" fill="url(#paint95_linear_298_216)"/>
<path d="M208.946 134.59C210.062 133.488 210.123 132.826 208.946 131.56C207.08 130.708 205.631 130.23 203.366 129.787C206.454 132.19 206.214 133.751 203.464 136.882C205.716 136.518 207.226 135.964 208.946 134.59Z" fill="#541411"/>
<path d="M201.115 129.396V137.186C201.989 137.091 202.762 136.996 203.464 136.882C206.214 133.751 206.454 132.19 203.366 129.787C202.697 129.657 201.957 129.53 201.115 129.396Z" fill="url(#paint96_linear_298_216)"/>
<path d="M208.946 142.379C210.062 141.277 210.123 140.615 208.946 139.349C207.08 138.497 205.631 138.019 203.366 137.577C206.454 139.979 206.214 141.54 203.464 144.671C205.716 144.307 207.226 143.753 208.946 142.379Z" fill="#541411"/>
<path d="M201.115 137.186V144.975C201.989 144.88 202.762 144.785 203.464 144.671C206.214 141.54 206.454 139.979 203.366 137.577C202.697 137.446 201.957 137.319 201.115 137.186Z" fill="url(#paint97_linear_298_216)"/>
<path d="M208.946 150.949C210.062 149.848 210.123 149.186 208.946 147.92C207.08 147.067 205.631 146.589 203.366 146.147C206.454 148.549 206.214 150.111 203.464 153.241C205.716 152.877 207.226 152.323 208.946 150.949Z" fill="#541411"/>
<path d="M201.115 145.756V153.546C201.989 153.45 202.762 153.355 203.464 153.241C206.214 150.111 206.454 148.549 203.366 146.147C202.697 146.016 201.957 145.889 201.115 145.756Z" fill="url(#paint98_linear_298_216)"/>
<path d="M203.177 137.133C204.293 135.191 204.354 134.024 203.177 131.792C201.31 130.288 199.862 129.446 197.597 128.666C200.685 132.902 200.445 135.655 197.695 141.175C199.947 140.533 201.457 139.556 203.177 137.133Z" fill="#541411"/>
<path d="M195.346 127.977V141.711C196.22 141.542 196.993 141.375 197.695 141.175C200.445 135.655 200.685 132.902 197.597 128.666C196.928 128.436 196.188 128.211 195.346 127.977Z" fill="url(#paint99_linear_298_216)"/>
<path d="M203.177 150.867C204.293 148.925 204.354 147.758 203.177 145.526C201.31 144.023 199.862 143.18 197.597 142.4C200.685 146.636 200.445 149.389 197.695 154.909C199.947 154.267 201.457 153.29 203.177 150.867Z" fill="#541411"/>
<path d="M195.346 141.711V155.445C196.22 155.276 196.993 155.109 197.695 154.909C200.445 149.389 200.685 146.636 197.597 142.4C196.928 142.17 196.188 141.946 195.346 141.711Z" fill="url(#paint100_linear_298_216)"/>
<path d="M197.407 133.976C198.524 132.503 198.585 131.617 197.407 129.924C195.541 128.783 194.093 128.144 191.828 127.552C194.916 130.766 194.676 132.855 191.926 137.043C194.178 136.556 195.688 135.815 197.407 133.976Z" fill="#541411"/>
<path d="M189.577 127.029V137.45C190.451 137.322 191.224 137.195 191.926 137.043C194.676 132.855 194.916 130.766 191.828 127.552C191.159 127.378 190.419 127.207 189.577 127.029Z" fill="url(#paint101_linear_298_216)"/>
<path d="M197.407 144.396C198.524 142.923 198.585 142.037 197.407 140.344C195.541 139.203 194.093 138.564 191.828 137.972C194.916 141.186 194.676 143.275 191.926 147.463C194.178 146.976 195.688 146.235 197.407 144.396Z" fill="#541411"/>
<path d="M189.577 137.449V147.87C190.451 147.742 191.224 147.615 191.926 147.463C194.676 143.275 194.916 141.186 191.828 137.972C191.159 137.798 190.419 137.627 189.577 137.449Z" fill="url(#paint102_linear_298_216)"/>
<path d="M197.407 155.859C198.524 154.386 198.585 153.5 197.407 151.807C195.541 150.666 194.093 150.027 191.828 149.435C194.916 152.649 194.676 154.738 191.926 158.926C194.178 158.439 195.688 157.698 197.407 155.859Z" fill="#541411"/>
<path d="M189.577 148.912V159.333C190.451 159.205 191.224 159.078 191.926 158.926C194.676 154.738 194.916 152.649 191.828 149.435C191.159 149.261 190.419 149.09 189.577 148.912Z" fill="url(#paint103_linear_298_216)"/>
<path d="M191.638 138.561C192.754 136.417 192.815 135.128 191.638 132.663C189.772 131.004 188.324 130.073 186.058 129.212C189.147 133.889 188.907 136.929 186.157 143.023C188.408 142.314 189.918 141.236 191.638 138.561Z" fill="#541411"/>
<path d="M183.807 128.451V143.615C184.681 143.429 185.455 143.244 186.157 143.023C188.907 136.929 189.147 133.889 186.058 129.212C185.39 128.958 184.65 128.71 183.807 128.451Z" fill="url(#paint104_linear_298_216)"/>
<path d="M191.638 153.725C192.754 151.581 192.815 150.292 191.638 147.827C189.772 146.168 188.324 145.237 186.058 144.376C189.147 149.053 188.907 152.093 186.157 158.187C188.408 157.478 189.918 156.4 191.638 153.725Z" fill="#541411"/>
<path d="M183.807 143.615V158.779C184.681 158.593 185.455 158.408 186.157 158.187C188.907 152.093 189.147 149.053 186.058 144.376C185.39 144.122 184.65 143.874 183.807 143.615Z" fill="url(#paint105_linear_298_216)"/>
<path d="M187.151 134.203C188.267 132.581 188.328 131.607 187.151 129.743C185.285 128.487 183.837 127.784 181.571 127.132C184.66 130.67 184.42 132.969 181.669 137.578C183.921 137.042 185.431 136.227 187.151 134.203Z" fill="#541411"/>
<path d="M179.32 126.557V138.026C180.194 137.885 180.968 137.745 181.669 137.578C184.42 132.969 184.66 130.67 181.571 127.132C180.903 126.94 180.163 126.753 179.32 126.557Z" fill="url(#paint106_linear_298_216)"/>
<path d="M187.151 145.672C188.267 144.05 188.328 143.075 187.151 141.211C185.285 139.956 183.837 139.252 181.571 138.601C184.66 142.139 184.42 144.437 181.669 149.047C183.921 148.511 185.431 147.695 187.151 145.672Z" fill="#541411"/>
<path d="M179.32 138.025V149.495C180.194 149.354 180.968 149.214 181.669 149.047C184.42 144.437 184.66 142.139 181.571 138.601C180.903 138.409 180.163 138.221 179.32 138.025Z" fill="url(#paint107_linear_298_216)"/>
<path d="M187.151 158.289C188.267 156.667 188.328 155.692 187.151 153.829C185.285 152.573 183.837 151.87 181.571 151.218C184.66 154.756 184.42 157.055 181.669 161.664C183.921 161.128 185.431 160.313 187.151 158.289Z" fill="#541411"/>
<path d="M179.32 150.643V162.112C180.194 161.971 180.968 161.831 181.669 161.664C184.42 157.055 184.66 154.756 181.571 151.218C180.903 151.026 180.163 150.838 179.32 150.643Z" fill="url(#paint108_linear_298_216)"/>
<path d="M182.212 104.061C183.177 102.351 183.229 101.324 182.212 99.3587C180.598 98.0353 179.346 97.2935 177.387 96.6069C180.057 100.336 179.85 102.76 177.472 107.619C179.419 107.054 180.724 106.194 182.212 104.061Z" fill="#541411"/>
<path d="M175.44 96V108.091C176.196 107.943 176.865 107.795 177.472 107.619C179.85 102.76 180.057 100.336 177.387 96.6069C176.809 96.4043 176.169 96.2065 175.44 96Z" fill="url(#paint109_linear_298_216)"/>
<path d="M182.212 116.153C183.177 114.443 183.229 113.416 182.212 111.451C180.598 110.127 179.346 109.385 177.387 108.699C180.057 112.428 179.85 114.852 177.472 119.711C179.419 119.146 180.724 118.286 182.212 116.153Z" fill="#541411"/>
<path d="M175.44 108.092V120.183C176.196 120.035 176.865 119.887 177.472 119.711C179.85 114.852 180.057 112.428 177.387 108.699C176.809 108.496 176.169 108.298 175.44 108.092Z" fill="url(#paint110_linear_298_216)"/>
<path d="M182.212 129.454C183.177 127.744 183.229 126.716 182.212 124.751C180.598 123.428 179.346 122.686 177.387 122C180.057 125.729 179.85 128.152 177.472 133.012C179.419 132.447 180.724 131.587 182.212 129.454Z" fill="#541411"/>
<path d="M175.44 121.393V133.484C176.196 133.336 176.865 133.188 177.472 133.012C179.85 128.152 180.057 125.729 177.387 122C176.809 121.797 176.169 121.599 175.44 121.393Z" fill="url(#paint111_linear_298_216)"/>
<path d="M182.212 141.545C183.177 139.836 183.229 138.808 182.212 136.843C180.598 135.52 179.346 134.778 177.387 134.091C180.057 137.821 179.85 140.244 177.472 145.104C179.419 144.539 180.724 143.679 182.212 141.545Z" fill="#541411"/>
<path d="M175.44 133.484V145.576C176.196 145.427 176.865 145.28 177.472 145.104C179.85 140.244 180.057 137.821 177.387 134.091C176.809 133.889 176.169 133.691 175.44 133.484Z" fill="url(#paint112_linear_298_216)"/>
<path d="M182.212 153.635C183.177 151.926 183.229 150.898 182.212 148.933C180.598 147.61 179.346 146.868 177.387 146.181C180.057 149.91 179.85 152.334 177.472 157.194C179.419 156.628 180.724 155.769 182.212 153.635Z" fill="#541411"/>
<path d="M175.44 145.574V157.666C176.196 157.517 176.865 157.37 177.472 157.194C179.85 152.334 180.057 149.91 177.387 146.181C176.809 145.979 176.169 145.781 175.44 145.574Z" fill="url(#paint113_linear_298_216)"/>
<path d="M176.669 97.7347C177.634 96.1888 177.686 95.2594 176.669 93.4825C175.055 92.2858 173.803 91.615 171.844 90.9942C174.514 94.3665 174.307 96.558 171.929 100.952C173.876 100.441 175.182 99.6639 176.669 97.7347Z" fill="#541411"/>
<path d="M169.897 90.4453V101.379C170.653 101.245 171.322 101.112 171.929 100.952C174.307 96.558 174.514 94.3665 171.844 90.9942C171.266 90.8109 170.626 90.6321 169.897 90.4453Z" fill="url(#paint114_linear_298_216)"/>
<path d="M176.669 108.668C177.634 107.122 177.686 106.193 176.669 104.416C175.055 103.219 173.803 102.549 171.844 101.928C174.514 105.3 174.307 107.492 171.929 111.886C173.876 111.375 175.182 110.597 176.669 108.668Z" fill="#541411"/>
<path d="M169.897 101.379V112.313C170.653 112.179 171.322 112.045 171.929 111.886C174.307 107.492 174.514 105.3 171.844 101.928C171.266 101.745 170.626 101.566 169.897 101.379Z" fill="url(#paint115_linear_298_216)"/>
<path d="M176.669 120.696C177.634 119.15 177.686 118.22 176.669 116.443C175.055 115.247 173.803 114.576 171.844 113.955C174.514 117.327 174.307 119.519 171.929 123.913C173.876 123.402 175.182 122.625 176.669 120.696Z" fill="#541411"/>
<path d="M169.897 113.406V124.34C170.653 124.206 171.322 124.073 171.929 123.913C174.307 119.519 174.514 117.327 171.844 113.955C171.266 113.772 170.626 113.593 169.897 113.406Z" fill="url(#paint116_linear_298_216)"/>
<path d="M176.669 131.631C177.634 130.085 177.686 129.156 176.669 127.379C175.055 126.182 173.803 125.511 171.844 124.891C174.514 128.263 174.307 130.454 171.929 134.849C173.876 134.338 175.182 133.56 176.669 131.631Z" fill="#541411"/>
<path d="M169.897 124.342V135.276C170.653 135.142 171.322 135.008 171.929 134.849C174.307 130.454 174.514 128.263 171.844 124.891C171.266 124.707 170.626 124.529 169.897 124.342Z" fill="url(#paint117_linear_298_216)"/>
<path d="M176.669 142.565C177.634 141.019 177.686 140.09 176.669 138.313C175.055 137.116 173.803 136.445 171.844 135.824C174.514 139.197 174.307 141.388 171.929 145.783C173.876 145.271 175.182 144.494 176.669 142.565Z" fill="#541411"/>
<path d="M169.897 135.275V146.209C170.653 146.075 171.322 145.942 171.929 145.783C174.307 141.388 174.514 139.197 171.844 135.824C171.266 135.641 170.626 135.462 169.897 135.275Z" fill="url(#paint118_linear_298_216)"/>
<path d="M172.679 103.289C173.786 101.743 173.847 100.814 172.679 99.0372C170.827 97.8405 169.39 97.1697 167.142 96.5488C170.207 99.9211 169.969 102.113 167.24 106.507C169.474 105.996 170.972 105.219 172.679 103.289Z" fill="#541411"/>
<path d="M164.909 96V106.934C165.776 106.8 166.544 106.666 167.24 106.507C169.969 102.113 170.207 99.9211 167.142 96.5488C166.479 96.3656 165.745 96.1867 164.909 96Z" fill="url(#paint119_linear_298_216)"/>
<path d="M172.679 114.223C173.786 112.677 173.847 111.748 172.679 109.971C170.827 108.774 169.39 108.103 167.142 107.482C170.207 110.855 169.969 113.046 167.24 117.441C169.474 116.93 170.972 116.152 172.679 114.223Z" fill="#541411"/>
<path d="M164.909 106.934V117.868C165.776 117.733 166.544 117.6 167.24 117.441C169.969 113.046 170.207 110.855 167.142 107.482C166.479 107.299 165.745 107.12 164.909 106.934Z" fill="url(#paint120_linear_298_216)"/>
<path d="M172.679 126.25C173.786 124.704 173.847 123.775 172.679 121.998C170.827 120.801 169.39 120.131 167.142 119.51C170.207 122.882 169.969 125.074 167.24 129.468C169.474 128.957 170.972 128.179 172.679 126.25Z" fill="#541411"/>
<path d="M164.909 118.961V129.895C165.776 129.761 166.544 129.627 167.24 129.468C169.969 125.074 170.207 122.882 167.142 119.51C166.479 119.327 165.745 119.148 164.909 118.961Z" fill="url(#paint121_linear_298_216)"/>
<path d="M172.679 137.186C173.786 135.64 173.847 134.711 172.679 132.934C170.827 131.737 169.39 131.066 167.142 130.445C170.207 133.818 169.969 136.009 167.24 140.404C169.474 139.893 170.972 139.115 172.679 137.186Z" fill="#541411"/>
<path d="M164.909 129.896V140.831C165.776 140.696 166.544 140.563 167.24 140.404C169.969 136.009 170.207 133.818 167.142 130.445C166.479 130.262 165.745 130.083 164.909 129.896Z" fill="url(#paint122_linear_298_216)"/>
<path d="M172.679 148.119C173.786 146.574 173.847 145.644 172.679 143.867C170.827 142.671 169.39 142 167.142 141.379C170.207 144.751 169.969 146.943 167.24 151.337C169.474 150.826 170.972 150.049 172.679 148.119Z" fill="#541411"/>
<path d="M164.909 140.83V151.764C165.776 151.63 166.544 151.496 167.24 151.337C169.969 146.943 170.207 144.751 167.142 141.379C166.479 141.196 165.745 141.017 164.909 140.83Z" fill="url(#paint123_linear_298_216)"/>
<path d="M168.305 127.667C169.421 125.9 169.482 124.838 168.305 122.806C166.439 121.438 164.991 120.671 162.726 119.961C165.814 123.817 165.574 126.322 162.824 131.346C165.075 130.762 166.586 129.873 168.305 127.667Z" fill="#541411"/>
<path d="M160.474 119.334V131.834C161.349 131.68 162.122 131.528 162.824 131.346C165.574 126.322 165.814 123.817 162.726 119.961C162.057 119.752 161.317 119.547 160.474 119.334Z" fill="url(#paint124_linear_298_216)"/>
<path d="M168.305 140.167C169.421 138.4 169.482 137.338 168.305 135.306C166.439 133.938 164.991 133.171 162.726 132.461C165.814 136.317 165.574 138.822 162.824 143.846C165.075 143.262 166.586 142.373 168.305 140.167Z" fill="#541411"/>
<path d="M160.474 131.834V144.334C161.349 144.18 162.122 144.028 162.824 143.846C165.574 138.822 165.814 136.317 162.726 132.461C162.057 132.252 161.317 132.047 160.474 131.834Z" fill="url(#paint125_linear_298_216)"/>
<path d="M163.871 128.965C164.987 127.04 165.048 125.883 163.871 123.671C162.005 122.182 160.557 121.347 158.291 120.574C161.38 124.772 161.14 127.5 158.389 132.97C160.641 132.334 162.151 131.366 163.871 128.965Z" fill="#541411"/>
<path d="M156.04 119.891V133.502C156.914 133.335 157.688 133.169 158.389 132.97C161.14 127.5 161.38 124.772 158.291 120.574C157.623 120.346 156.883 120.123 156.04 119.891Z" fill="url(#paint126_linear_298_216)"/>
<path d="M163.871 142.576C164.987 140.652 165.048 139.495 163.871 137.283C162.005 135.793 160.557 134.958 158.291 134.185C161.38 138.383 161.14 141.111 158.389 146.582C160.641 145.945 162.151 144.978 163.871 142.576Z" fill="#541411"/>
<path d="M156.04 133.502V147.113C156.914 146.946 157.688 146.78 158.389 146.582C161.14 141.111 161.38 138.383 158.291 134.185C157.623 133.957 156.883 133.734 156.04 133.502Z" fill="url(#paint127_linear_298_216)"/>
<path d="M158.328 129.443C159.444 127.299 159.505 126.011 158.328 123.546C156.462 121.887 155.014 120.956 152.748 120.095C155.837 124.772 155.597 127.812 152.846 133.906C155.098 133.197 156.608 132.119 158.328 129.443Z" fill="#541411"/>
<path d="M150.497 119.334V134.498C151.371 134.312 152.145 134.127 152.846 133.906C155.597 127.812 155.837 124.772 152.748 120.095C152.08 119.841 151.34 119.593 150.497 119.334Z" fill="url(#paint128_linear_298_216)"/>
<path d="M158.328 144.607C159.444 142.463 159.505 141.175 158.328 138.71C156.462 137.051 155.014 136.12 152.748 135.259C155.837 139.936 155.597 142.976 152.846 149.07C155.098 148.361 156.608 147.283 158.328 144.607Z" fill="#541411"/>
<path d="M150.497 134.498V149.662C151.371 149.476 152.145 149.291 152.846 149.07C155.597 142.976 155.837 139.936 152.748 135.259C152.08 135.005 151.34 134.757 150.497 134.498Z" fill="url(#paint129_linear_298_216)"/>
<path d="M277 125H165L258.333 130L277 125Z" fill="#F6F6F6" stroke="#DDDDDD"/>
<path d="M368 129.645C393.988 109.676 408.29 98.3023 438.235 81C441.776 93.9619 442.064 101.534 438.235 115.819C429.226 123.101 423.937 126.161 413.805 128.62C420.553 133.017 423.688 136.516 427.547 145.518C430.505 153.46 431.816 158.719 429.074 166C403.71 155.17 390.528 146.787 368 129.645Z" fill="white"/>
<line y1="-0.05" x2="81.1873" y2="-0.05" transform="matrix(0.877634 -0.479331 0.474857 0.880063 369.018 129.133)" stroke="black" stroke-width="0.1"/>
<line y1="-0.05" x2="78.0053" y2="-0.05" transform="matrix(-0.913435 0.406985 -0.402874 -0.915255 440.271 97.3848)" stroke="black" stroke-width="0.1"/>
<line y1="-0.05" x2="75.3727" y2="-0.05" transform="matrix(-0.945339 0.32609 -0.322566 -0.946547 440.271 104.555)" stroke="black" stroke-width="0.1"/>
<line y1="-0.05" x2="70.9011" y2="-0.05" transform="matrix(-0.976247 0.21666 -0.214166 -0.976797 438.235 113.771)" stroke="black" stroke-width="0.1"/>
<line y1="-0.05" x2="56.218" y2="-0.05" transform="matrix(-0.995843 0.0910826 -0.0899922 -0.995942 425.002 124.012)" stroke="black" stroke-width="0.1"/>
<line y1="-0.05" x2="51.0594" y2="-0.05" transform="matrix(-0.996777 -0.0802278 0.0792655 -0.996854 419.624 133.229)" stroke="black" stroke-width="0.1"/>
<line y1="-0.05" x2="55.5736" y2="-0.05" transform="matrix(-0.989074 -0.147422 0.14568 -0.989332 423.984 138.35)" stroke="black" stroke-width="0.1"/>
<line y1="-0.05" x2="59.7653" y2="-0.05" transform="matrix(-0.970799 -0.239894 0.237162 -0.97147 427.038 144.494)" stroke="black" stroke-width="0.1"/>
<line y1="-0.05" x2="64.8263" y2="-0.05" transform="matrix(-0.937663 -0.347546 0.34385 -0.939025 429.803 152.688)" stroke="black" stroke-width="0.1"/>
<line y1="-0.05" x2="67.6525" y2="-0.05" transform="matrix(-0.898492 -0.43899 0.434697 -0.900577 429.803 159.855)" stroke="black" stroke-width="0.1"/>
<path d="M369.527 128.621L370.036 129.133V130.157L369.527 130.669L368 129.645L369.527 128.621Z" fill="white"/>
<path d="M89 74.0858C100.659 42.2762 110.074 26.5307 133.809 3.51718C142.361 -1.79471 144.752 -0.563716 147.826 3.71669C150.493 31.5861 150.989 47.1811 151 74.9682L89 74.0858Z" fill="white"/>
<line y1="-0.05" x2="61.8575" y2="-0.05" transform="matrix(0.348667 -0.937247 0.949362 0.314185 99.3429 75)" stroke="black" stroke-width="0.1"/>
<line y1="-0.05" x2="69.5417" y2="-0.05" transform="matrix(0.31014 -0.950691 0.960375 0.278712 106.892 75)" stroke="black" stroke-width="0.1"/>
<line y1="-0.05" x2="78.631" y2="-0.05" transform="matrix(0.329147 -0.944279 0.955133 0.296176 113.362 75)" stroke="black" stroke-width="0.1"/>
<line y1="-0.05" x2="77.6713" y2="-0.05" transform="matrix(0.333214 -0.942851 0.953964 0.299922 119.832 75)" stroke="black" stroke-width="0.1"/>
<line y1="-0.05" x2="63.1902" y2="-0.05" transform="matrix(0.358379 -0.933576 0.94634 0.323174 126.302 75)" stroke="black" stroke-width="0.1"/>
<line y1="-0.05" x2="48.9145" y2="-0.05" transform="matrix(0.352741 -0.935721 0.948107 0.317953 132.773 75)" stroke="black" stroke-width="0.1"/>
<line y1="-0.05" x2="33.3238" y2="-0.05" transform="matrix(0.323608 -0.946191 0.956699 0.291079 139.243 75)" stroke="black" stroke-width="0.1"/>
<path d="M88 177.914C99.8475 209.724 109.413 225.469 133.531 248.483C142.222 253.795 144.651 252.564 147.775 248.283C150.485 220.414 150.989 204.819 151 177.032L88 177.914Z" fill="white"/>
<line y1="-0.05" x2="61.9796" y2="-0.05" transform="matrix(0.353593 0.935399 0.950841 -0.309679 98.5096 177)" stroke="black" stroke-width="0.1"/>
<line y1="-0.05" x2="69.6504" y2="-0.05" transform="matrix(0.314651 0.949208 0.961552 -0.274624 106.18 177)" stroke="black" stroke-width="0.1"/>
<line y1="-0.05" x2="78.7694" y2="-0.05" transform="matrix(0.333869 0.94262 0.956455 -0.291879 112.755 177)" stroke="black" stroke-width="0.1"/>
<line y1="-0.05" x2="77.8114" y2="-0.05" transform="matrix(0.337979 0.941154 0.955318 -0.295581 119.329 177)" stroke="black" stroke-width="0.1"/>
<line y1="-0.05" x2="63.322" y2="-0.05" transform="matrix(0.363402 0.931633 0.9479 -0.318569 125.904 177)" stroke="black" stroke-width="0.1"/>
<line y1="-0.05" x2="49.0133" y2="-0.05" transform="matrix(0.357707 0.933834 0.94962 -0.313405 132.479 177)" stroke="black" stroke-width="0.1"/>
<line y1="-0.05" x2="33.3805" y2="-0.05" transform="matrix(0.328269 0.944584 0.957978 -0.286842 139.053 177)" stroke="black" stroke-width="0.1"/>
<ellipse cx="36" cy="93" rx="3" ry="3" transform="rotate(90 36 93)" fill="black"/>
<ellipse cx="36" cy="154" rx="3" ry="3" transform="rotate(90 36 154)" fill="black"/>
</g>
<defs>
<linearGradient id="paint0_linear_298_216" x1="297.624" y1="116.464" x2="289" y2="116.464" gradientUnits="userSpaceOnUse">
<stop stop-color="#541411"/>
<stop offset="1" stop-color="#8A0600"/>
</linearGradient>
<linearGradient id="paint1_linear_298_216" x1="297.624" y1="130.063" x2="289" y2="130.063" gradientUnits="userSpaceOnUse">
<stop stop-color="#541411"/>
<stop offset="1" stop-color="#8A0600"/>
</linearGradient>
<linearGradient id="paint2_linear_298_216" x1="292.624" y1="112.227" x2="284" y2="112.227" gradientUnits="userSpaceOnUse">
<stop stop-color="#541411"/>
<stop offset="1" stop-color="#8A0600"/>
</linearGradient>
<linearGradient id="paint3_linear_298_216" x1="292.624" y1="123.078" x2="284" y2="123.078" gradientUnits="userSpaceOnUse">
<stop stop-color="#541411"/>
<stop offset="1" stop-color="#8A0600"/>
</linearGradient>
<linearGradient id="paint4_linear_298_216" x1="292.624" y1="135.016" x2="284" y2="135.016" gradientUnits="userSpaceOnUse">
<stop stop-color="#541411"/>
<stop offset="1" stop-color="#8A0600"/>
</linearGradient>
<linearGradient id="paint5_linear_298_216" x1="285.624" y1="117.808" x2="277" y2="117.808" gradientUnits="userSpaceOnUse">
<stop stop-color="#541411"/>
<stop offset="1" stop-color="#8A0600"/>
</linearGradient>
<linearGradient id="paint6_linear_298_216" x1="285.624" y1="136.566" x2="277" y2="136.566" gradientUnits="userSpaceOnUse">
<stop stop-color="#541411"/>
<stop offset="1" stop-color="#8A0600"/>
</linearGradient>
<linearGradient id="paint7_linear_298_216" x1="280.624" y1="111.964" x2="272" y2="111.964" gradientUnits="userSpaceOnUse">
<stop stop-color="#541411"/>
<stop offset="1" stop-color="#8A0600"/>
</linearGradient>
<linearGradient id="paint8_linear_298_216" x1="280.624" y1="126.931" x2="272" y2="126.931" gradientUnits="userSpaceOnUse">
<stop stop-color="#541411"/>
<stop offset="1" stop-color="#8A0600"/>
</linearGradient>
<linearGradient id="paint9_linear_298_216" x1="280.624" y1="143.396" x2="272" y2="143.396" gradientUnits="userSpaceOnUse">
<stop stop-color="#541411"/>
<stop offset="1" stop-color="#8A0600"/>
</linearGradient>
<linearGradient id="paint10_linear_298_216" x1="274.624" y1="117.981" x2="266" y2="117.981" gradientUnits="userSpaceOnUse">
<stop stop-color="#541411"/>
<stop offset="1" stop-color="#8A0600"/>
</linearGradient>
<linearGradient id="paint11_linear_298_216" x1="274.624" y1="138.613" x2="266" y2="138.613" gradientUnits="userSpaceOnUse">
<stop stop-color="#541411"/>
<stop offset="1" stop-color="#8A0600"/>
</linearGradient>
<linearGradient id="paint12_linear_298_216" x1="269.624" y1="111.553" x2="261" y2="111.553" gradientUnits="userSpaceOnUse">
<stop stop-color="#541411"/>
<stop offset="1" stop-color="#8A0600"/>
</linearGradient>
<linearGradient id="paint13_linear_298_216" x1="269.624" y1="128.017" x2="261" y2="128.017" gradientUnits="userSpaceOnUse">
<stop stop-color="#541411"/>
<stop offset="1" stop-color="#8A0600"/>
</linearGradient>
<linearGradient id="paint14_linear_298_216" x1="269.624" y1="146.129" x2="261" y2="146.129" gradientUnits="userSpaceOnUse">
<stop stop-color="#541411"/>
<stop offset="1" stop-color="#8A0600"/>
</linearGradient>
<linearGradient id="paint15_linear_298_216" x1="263.624" y1="117.487" x2="255" y2="117.487" gradientUnits="userSpaceOnUse">
<stop stop-color="#541411"/>
<stop offset="1" stop-color="#8A0600"/>
</linearGradient>
<linearGradient id="paint16_linear_298_216" x1="263.624" y1="139.057" x2="255" y2="139.057" gradientUnits="userSpaceOnUse">
<stop stop-color="#541411"/>
<stop offset="1" stop-color="#8A0600"/>
</linearGradient>
<linearGradient id="paint17_linear_298_216" x1="258.624" y1="110.767" x2="250" y2="110.767" gradientUnits="userSpaceOnUse">
<stop stop-color="#541411"/>
<stop offset="1" stop-color="#8A0600"/>
</linearGradient>
<linearGradient id="paint18_linear_298_216" x1="258.624" y1="127.979" x2="250" y2="127.979" gradientUnits="userSpaceOnUse">
<stop stop-color="#541411"/>
<stop offset="1" stop-color="#8A0600"/>
</linearGradient>
<linearGradient id="paint19_linear_298_216" x1="258.624" y1="146.913" x2="250" y2="146.913" gradientUnits="userSpaceOnUse">
<stop stop-color="#541411"/>
<stop offset="1" stop-color="#8A0600"/>
</linearGradient>
<linearGradient id="paint20_linear_298_216" x1="150.022" y1="124.831" x2="142.507" y2="124.831" gradientUnits="userSpaceOnUse">
<stop stop-color="#541411"/>
<stop offset="1" stop-color="#8A0600"/>
</linearGradient>
<linearGradient id="paint21_linear_298_216" x1="150.022" y1="135.22" x2="142.507" y2="135.22" gradientUnits="userSpaceOnUse">
<stop stop-color="#541411"/>
<stop offset="1" stop-color="#8A0600"/>
</linearGradient>
<linearGradient id="paint22_linear_298_216" x1="150.022" y1="146.65" x2="142.507" y2="146.65" gradientUnits="userSpaceOnUse">
<stop stop-color="#541411"/>
<stop offset="1" stop-color="#8A0600"/>
</linearGradient>
<linearGradient id="paint23_linear_298_216" x1="145.291" y1="120.001" x2="137.776" y2="120.001" gradientUnits="userSpaceOnUse">
<stop stop-color="#541411"/>
<stop offset="1" stop-color="#8A0600"/>
</linearGradient>
<linearGradient id="paint24_linear_298_216" x1="145.291" y1="130.39" x2="137.776" y2="130.39" gradientUnits="userSpaceOnUse">
<stop stop-color="#541411"/>
<stop offset="1" stop-color="#8A0600"/>
</linearGradient>
<linearGradient id="paint25_linear_298_216" x1="145.291" y1="141.82" x2="137.776" y2="141.82" gradientUnits="userSpaceOnUse">
<stop stop-color="#541411"/>
<stop offset="1" stop-color="#8A0600"/>
</linearGradient>
<linearGradient id="paint26_linear_298_216" x1="145.291" y1="152.208" x2="137.776" y2="152.208" gradientUnits="userSpaceOnUse">
<stop stop-color="#541411"/>
<stop offset="1" stop-color="#8A0600"/>
</linearGradient>
<linearGradient id="paint27_linear_298_216" x1="141.505" y1="114.206" x2="133.99" y2="114.206" gradientUnits="userSpaceOnUse">
<stop stop-color="#541411"/>
<stop offset="1" stop-color="#8A0600"/>
</linearGradient>
<linearGradient id="paint28_linear_298_216" x1="141.505" y1="124.595" x2="133.99" y2="124.595" gradientUnits="userSpaceOnUse">
<stop stop-color="#541411"/>
<stop offset="1" stop-color="#8A0600"/>
</linearGradient>
<linearGradient id="paint29_linear_298_216" x1="141.505" y1="136.025" x2="133.99" y2="136.025" gradientUnits="userSpaceOnUse">
<stop stop-color="#541411"/>
<stop offset="1" stop-color="#8A0600"/>
</linearGradient>
<linearGradient id="paint30_linear_298_216" x1="141.505" y1="146.413" x2="133.99" y2="146.413" gradientUnits="userSpaceOnUse">
<stop stop-color="#541411"/>
<stop offset="1" stop-color="#8A0600"/>
</linearGradient>
<linearGradient id="paint31_linear_298_216" x1="141.505" y1="156.802" x2="133.99" y2="156.802" gradientUnits="userSpaceOnUse">
<stop stop-color="#541411"/>
<stop offset="1" stop-color="#8A0600"/>
</linearGradient>
<linearGradient id="paint32_linear_298_216" x1="136.395" y1="107.861" x2="128.88" y2="107.861" gradientUnits="userSpaceOnUse">
<stop stop-color="#541411"/>
<stop offset="1" stop-color="#8A0600"/>
</linearGradient>
<linearGradient id="paint33_linear_298_216" x1="136.395" y1="118.249" x2="128.88" y2="118.249" gradientUnits="userSpaceOnUse">
<stop stop-color="#541411"/>
<stop offset="1" stop-color="#8A0600"/>
</linearGradient>
<linearGradient id="paint34_linear_298_216" x1="136.395" y1="129.679" x2="128.88" y2="129.679" gradientUnits="userSpaceOnUse">
<stop stop-color="#541411"/>
<stop offset="1" stop-color="#8A0600"/>
</linearGradient>
<linearGradient id="paint35_linear_298_216" x1="136.395" y1="140.068" x2="128.88" y2="140.068" gradientUnits="userSpaceOnUse">
<stop stop-color="#541411"/>
<stop offset="1" stop-color="#8A0600"/>
</linearGradient>
<linearGradient id="paint36_linear_298_216" x1="136.395" y1="150.456" x2="128.88" y2="150.456" gradientUnits="userSpaceOnUse">
<stop stop-color="#541411"/>
<stop offset="1" stop-color="#8A0600"/>
</linearGradient>
<linearGradient id="paint37_linear_298_216" x1="131.407" y1="112.979" x2="123.891" y2="112.979" gradientUnits="userSpaceOnUse">
<stop stop-color="#541411"/>
<stop offset="1" stop-color="#8A0600"/>
</linearGradient>
<linearGradient id="paint38_linear_298_216" x1="131.407" y1="103.493" x2="123.891" y2="103.493" gradientUnits="userSpaceOnUse">
<stop stop-color="#541411"/>
<stop offset="1" stop-color="#8A0600"/>
</linearGradient>
<linearGradient id="paint39_linear_298_216" x1="131.407" y1="123.518" x2="123.891" y2="123.518" gradientUnits="userSpaceOnUse">
<stop stop-color="#541411"/>
<stop offset="1" stop-color="#8A0600"/>
</linearGradient>
<linearGradient id="paint40_linear_298_216" x1="131.407" y1="135.112" x2="123.891" y2="135.112" gradientUnits="userSpaceOnUse">
<stop stop-color="#541411"/>
<stop offset="1" stop-color="#8A0600"/>
</linearGradient>
<linearGradient id="paint41_linear_298_216" x1="131.407" y1="145.653" x2="123.891" y2="145.653" gradientUnits="userSpaceOnUse">
<stop stop-color="#541411"/>
<stop offset="1" stop-color="#8A0600"/>
</linearGradient>
<linearGradient id="paint42_linear_298_216" x1="131.407" y1="156.192" x2="123.891" y2="156.192" gradientUnits="userSpaceOnUse">
<stop stop-color="#541411"/>
<stop offset="1" stop-color="#8A0600"/>
</linearGradient>
<linearGradient id="paint43_linear_298_216" x1="127.526" y1="108.586" x2="120.011" y2="108.586" gradientUnits="userSpaceOnUse">
<stop stop-color="#541411"/>
<stop offset="1" stop-color="#8A0600"/>
</linearGradient>
<linearGradient id="paint44_linear_298_216" x1="127.526" y1="99.4237" x2="120.011" y2="99.4237" gradientUnits="userSpaceOnUse">
<stop stop-color="#541411"/>
<stop offset="1" stop-color="#8A0600"/>
</linearGradient>
<linearGradient id="paint45_linear_298_216" x1="127.526" y1="118.766" x2="120.011" y2="118.766" gradientUnits="userSpaceOnUse">
<stop stop-color="#541411"/>
<stop offset="1" stop-color="#8A0600"/>
</linearGradient>
<linearGradient id="paint46_linear_298_216" x1="127.526" y1="129.963" x2="120.011" y2="129.963" gradientUnits="userSpaceOnUse">
<stop stop-color="#541411"/>
<stop offset="1" stop-color="#8A0600"/>
</linearGradient>
<linearGradient id="paint47_linear_298_216" x1="127.526" y1="140.142" x2="120.011" y2="140.142" gradientUnits="userSpaceOnUse">
<stop stop-color="#541411"/>
<stop offset="1" stop-color="#8A0600"/>
</linearGradient>
<linearGradient id="paint48_linear_298_216" x1="127.526" y1="150.32" x2="120.011" y2="150.32" gradientUnits="userSpaceOnUse">
<stop stop-color="#541411"/>
<stop offset="1" stop-color="#8A0600"/>
</linearGradient>
<linearGradient id="paint49_linear_298_216" x1="127.526" y1="159.139" x2="120.011" y2="159.139" gradientUnits="userSpaceOnUse">
<stop stop-color="#541411"/>
<stop offset="1" stop-color="#8A0600"/>
</linearGradient>
<linearGradient id="paint50_linear_298_216" x1="122.746" y1="103.483" x2="115.23" y2="103.483" gradientUnits="userSpaceOnUse">
<stop stop-color="#541411"/>
<stop offset="1" stop-color="#8A0600"/>
</linearGradient>
<linearGradient id="paint51_linear_298_216" x1="122.746" y1="93.9965" x2="115.23" y2="93.9965" gradientUnits="userSpaceOnUse">
<stop stop-color="#541411"/>
<stop offset="1" stop-color="#8A0600"/>
</linearGradient>
<linearGradient id="paint52_linear_298_216" x1="122.746" y1="114.022" x2="115.23" y2="114.022" gradientUnits="userSpaceOnUse">
<stop stop-color="#541411"/>
<stop offset="1" stop-color="#8A0600"/>
</linearGradient>
<linearGradient id="paint53_linear_298_216" x1="122.746" y1="125.616" x2="115.23" y2="125.616" gradientUnits="userSpaceOnUse">
<stop stop-color="#541411"/>
<stop offset="1" stop-color="#8A0600"/>
</linearGradient>
<linearGradient id="paint54_linear_298_216" x1="122.746" y1="136.157" x2="115.23" y2="136.157" gradientUnits="userSpaceOnUse">
<stop stop-color="#541411"/>
<stop offset="1" stop-color="#8A0600"/>
</linearGradient>
<linearGradient id="paint55_linear_298_216" x1="122.746" y1="146.696" x2="115.23" y2="146.696" gradientUnits="userSpaceOnUse">
<stop stop-color="#541411"/>
<stop offset="1" stop-color="#8A0600"/>
</linearGradient>
<linearGradient id="paint56_linear_298_216" x1="122.746" y1="155.827" x2="115.23" y2="155.827" gradientUnits="userSpaceOnUse">
<stop stop-color="#541411"/>
<stop offset="1" stop-color="#8A0600"/>
</linearGradient>
<linearGradient id="paint57_linear_298_216" x1="117.735" y1="109.29" x2="110.22" y2="109.29" gradientUnits="userSpaceOnUse">
<stop stop-color="#541411"/>
<stop offset="1" stop-color="#8A0600"/>
</linearGradient>
<linearGradient id="paint58_linear_298_216" x1="117.735" y1="99.8032" x2="110.22" y2="99.8032" gradientUnits="userSpaceOnUse">
<stop stop-color="#541411"/>
<stop offset="1" stop-color="#8A0600"/>
</linearGradient>
<linearGradient id="paint59_linear_298_216" x1="117.735" y1="119.829" x2="110.22" y2="119.829" gradientUnits="userSpaceOnUse">
<stop stop-color="#541411"/>
<stop offset="1" stop-color="#8A0600"/>
</linearGradient>
<linearGradient id="paint60_linear_298_216" x1="117.735" y1="131.422" x2="110.22" y2="131.422" gradientUnits="userSpaceOnUse">
<stop stop-color="#541411"/>
<stop offset="1" stop-color="#8A0600"/>
</linearGradient>
<linearGradient id="paint61_linear_298_216" x1="117.735" y1="141.963" x2="110.22" y2="141.963" gradientUnits="userSpaceOnUse">
<stop stop-color="#541411"/>
<stop offset="1" stop-color="#8A0600"/>
</linearGradient>
<linearGradient id="paint62_linear_298_216" x1="117.735" y1="152.502" x2="110.22" y2="152.502" gradientUnits="userSpaceOnUse">
<stop stop-color="#541411"/>
<stop offset="1" stop-color="#8A0600"/>
</linearGradient>
<linearGradient id="paint63_linear_298_216" x1="112.725" y1="105.962" x2="105.21" y2="105.962" gradientUnits="userSpaceOnUse">
<stop stop-color="#541411"/>
<stop offset="1" stop-color="#8A0600"/>
</linearGradient>
<linearGradient id="paint64_linear_298_216" x1="112.725" y1="96.6107" x2="105.21" y2="96.6107" gradientUnits="userSpaceOnUse">
<stop stop-color="#541411"/>
<stop offset="1" stop-color="#8A0600"/>
</linearGradient>
<linearGradient id="paint65_linear_298_216" x1="112.169" y1="87.1615" x2="104.654" y2="87.1615" gradientUnits="userSpaceOnUse">
<stop stop-color="#541411"/>
<stop offset="1" stop-color="#8A0600"/>
</linearGradient>
<linearGradient id="paint66_linear_298_216" x1="112.725" y1="116.351" x2="105.21" y2="116.351" gradientUnits="userSpaceOnUse">
<stop stop-color="#541411"/>
<stop offset="1" stop-color="#8A0600"/>
</linearGradient>
<linearGradient id="paint67_linear_298_216" x1="112.725" y1="127.779" x2="105.21" y2="127.779" gradientUnits="userSpaceOnUse">
<stop stop-color="#541411"/>
<stop offset="1" stop-color="#8A0600"/>
</linearGradient>
<linearGradient id="paint68_linear_298_216" x1="112.725" y1="138.169" x2="105.21" y2="138.169" gradientUnits="userSpaceOnUse">
<stop stop-color="#541411"/>
<stop offset="1" stop-color="#8A0600"/>
</linearGradient>
<linearGradient id="paint69_linear_298_216" x1="112.725" y1="148.558" x2="105.21" y2="148.558" gradientUnits="userSpaceOnUse">
<stop stop-color="#541411"/>
<stop offset="1" stop-color="#8A0600"/>
</linearGradient>
<linearGradient id="paint70_linear_298_216" x1="112.725" y1="157.908" x2="105.21" y2="157.908" gradientUnits="userSpaceOnUse">
<stop stop-color="#541411"/>
<stop offset="1" stop-color="#8A0600"/>
</linearGradient>
<linearGradient id="paint71_linear_298_216" x1="107.715" y1="111.156" x2="100.2" y2="111.156" gradientUnits="userSpaceOnUse">
<stop stop-color="#541411"/>
<stop offset="1" stop-color="#8A0600"/>
</linearGradient>
<linearGradient id="paint72_linear_298_216" x1="107.715" y1="101.806" x2="100.2" y2="101.806" gradientUnits="userSpaceOnUse">
<stop stop-color="#541411"/>
<stop offset="1" stop-color="#8A0600"/>
</linearGradient>
<linearGradient id="paint73_linear_298_216" x1="107.437" y1="92.9564" x2="99.922" y2="92.9564" gradientUnits="userSpaceOnUse">
<stop stop-color="#541411"/>
<stop offset="1" stop-color="#8A0600"/>
</linearGradient>
<linearGradient id="paint74_linear_298_216" x1="107.715" y1="121.544" x2="100.2" y2="121.544" gradientUnits="userSpaceOnUse">
<stop stop-color="#541411"/>
<stop offset="1" stop-color="#8A0600"/>
</linearGradient>
<linearGradient id="paint75_linear_298_216" x1="107.715" y1="132.974" x2="100.2" y2="132.974" gradientUnits="userSpaceOnUse">
<stop stop-color="#541411"/>
<stop offset="1" stop-color="#8A0600"/>
</linearGradient>
<linearGradient id="paint76_linear_298_216" x1="107.715" y1="143.363" x2="100.2" y2="143.363" gradientUnits="userSpaceOnUse">
<stop stop-color="#541411"/>
<stop offset="1" stop-color="#8A0600"/>
</linearGradient>
<linearGradient id="paint77_linear_298_216" x1="107.715" y1="153.751" x2="100.2" y2="153.751" gradientUnits="userSpaceOnUse">
<stop stop-color="#541411"/>
<stop offset="1" stop-color="#8A0600"/>
</linearGradient>
<linearGradient id="paint78_linear_298_216" x1="102.705" y1="105.96" x2="95.1903" y2="105.96" gradientUnits="userSpaceOnUse">
<stop stop-color="#541411"/>
<stop offset="1" stop-color="#8A0600"/>
</linearGradient>
<linearGradient id="paint79_linear_298_216" x1="102.705" y1="116.349" x2="95.1903" y2="116.349" gradientUnits="userSpaceOnUse">
<stop stop-color="#541411"/>
<stop offset="1" stop-color="#8A0600"/>
</linearGradient>
<linearGradient id="paint80_linear_298_216" x1="102.705" y1="127.779" x2="95.1903" y2="127.779" gradientUnits="userSpaceOnUse">
<stop stop-color="#541411"/>
<stop offset="1" stop-color="#8A0600"/>
</linearGradient>
<linearGradient id="paint81_linear_298_216" x1="102.705" y1="138.167" x2="95.1903" y2="138.167" gradientUnits="userSpaceOnUse">
<stop stop-color="#541411"/>
<stop offset="1" stop-color="#8A0600"/>
</linearGradient>
<linearGradient id="paint82_linear_298_216" x1="102.705" y1="148.556" x2="95.1903" y2="148.556" gradientUnits="userSpaceOnUse">
<stop stop-color="#541411"/>
<stop offset="1" stop-color="#8A0600"/>
</linearGradient>
<linearGradient id="paint83_linear_298_216" x1="211.469" y1="98.9039" x2="202.778" y2="98.9039" gradientUnits="userSpaceOnUse">
<stop stop-color="#541411"/>
<stop offset="1" stop-color="#8A0600"/>
</linearGradient>
<linearGradient id="paint84_linear_298_216" x1="211.469" y1="108.044" x2="202.778" y2="108.044" gradientUnits="userSpaceOnUse">
<stop stop-color="#541411"/>
<stop offset="1" stop-color="#8A0600"/>
</linearGradient>
<linearGradient id="paint85_linear_298_216" x1="211.469" y1="118.097" x2="202.778" y2="118.097" gradientUnits="userSpaceOnUse">
<stop stop-color="#541411"/>
<stop offset="1" stop-color="#8A0600"/>
</linearGradient>
<linearGradient id="paint86_linear_298_216" x1="205.7" y1="100.168" x2="197.009" y2="100.168" gradientUnits="userSpaceOnUse">
<stop stop-color="#541411"/>
<stop offset="1" stop-color="#8A0600"/>
</linearGradient>
<linearGradient id="paint87_linear_298_216" x1="205.7" y1="115.168" x2="197.009" y2="115.168" gradientUnits="userSpaceOnUse">
<stop stop-color="#541411"/>
<stop offset="1" stop-color="#8A0600"/>
</linearGradient>
<linearGradient id="paint88_linear_298_216" x1="199.93" y1="96.5746" x2="191.239" y2="96.5746" gradientUnits="userSpaceOnUse">
<stop stop-color="#541411"/>
<stop offset="1" stop-color="#8A0600"/>
</linearGradient>
<linearGradient id="paint89_linear_298_216" x1="199.93" y1="106.61" x2="191.239" y2="106.61" gradientUnits="userSpaceOnUse">
<stop stop-color="#541411"/>
<stop offset="1" stop-color="#8A0600"/>
</linearGradient>
<linearGradient id="paint90_linear_298_216" x1="199.93" y1="117.651" x2="191.239" y2="117.651" gradientUnits="userSpaceOnUse">
<stop stop-color="#541411"/>
<stop offset="1" stop-color="#8A0600"/>
</linearGradient>
<linearGradient id="paint91_linear_298_216" x1="194.161" y1="100.445" x2="185.47" y2="100.445" gradientUnits="userSpaceOnUse">
<stop stop-color="#541411"/>
<stop offset="1" stop-color="#8A0600"/>
</linearGradient>
<linearGradient id="paint92_linear_298_216" x1="194.161" y1="114.89" x2="185.47" y2="114.89" gradientUnits="userSpaceOnUse">
<stop stop-color="#541411"/>
<stop offset="1" stop-color="#8A0600"/>
</linearGradient>
<linearGradient id="paint93_linear_298_216" x1="189.674" y1="96.467" x2="180.983" y2="96.467" gradientUnits="userSpaceOnUse">
<stop stop-color="#541411"/>
<stop offset="1" stop-color="#8A0600"/>
</linearGradient>
<linearGradient id="paint94_linear_298_216" x1="189.674" y1="107.401" x2="180.983" y2="107.401" gradientUnits="userSpaceOnUse">
<stop stop-color="#541411"/>
<stop offset="1" stop-color="#8A0600"/>
</linearGradient>
<linearGradient id="paint95_linear_298_216" x1="189.674" y1="119.428" x2="180.983" y2="119.428" gradientUnits="userSpaceOnUse">
<stop stop-color="#541411"/>
<stop offset="1" stop-color="#8A0600"/>
</linearGradient>
<linearGradient id="paint96_linear_298_216" x1="209.806" y1="133.291" x2="201.115" y2="133.291" gradientUnits="userSpaceOnUse">
<stop stop-color="#541411"/>
<stop offset="1" stop-color="#8A0600"/>
</linearGradient>
<linearGradient id="paint97_linear_298_216" x1="209.806" y1="141.08" x2="201.115" y2="141.08" gradientUnits="userSpaceOnUse">
<stop stop-color="#541411"/>
<stop offset="1" stop-color="#8A0600"/>
</linearGradient>
<linearGradient id="paint98_linear_298_216" x1="209.806" y1="149.651" x2="201.115" y2="149.651" gradientUnits="userSpaceOnUse">
<stop stop-color="#541411"/>
<stop offset="1" stop-color="#8A0600"/>
</linearGradient>
<linearGradient id="paint99_linear_298_216" x1="204.037" y1="134.844" x2="195.346" y2="134.844" gradientUnits="userSpaceOnUse">
<stop stop-color="#541411"/>
<stop offset="1" stop-color="#8A0600"/>
</linearGradient>
<linearGradient id="paint100_linear_298_216" x1="204.037" y1="148.578" x2="195.346" y2="148.578" gradientUnits="userSpaceOnUse">
<stop stop-color="#541411"/>
<stop offset="1" stop-color="#8A0600"/>
</linearGradient>
<linearGradient id="paint101_linear_298_216" x1="198.268" y1="132.24" x2="189.577" y2="132.24" gradientUnits="userSpaceOnUse">
<stop stop-color="#541411"/>
<stop offset="1" stop-color="#8A0600"/>
</linearGradient>
<linearGradient id="paint102_linear_298_216" x1="198.268" y1="142.66" x2="189.577" y2="142.66" gradientUnits="userSpaceOnUse">
<stop stop-color="#541411"/>
<stop offset="1" stop-color="#8A0600"/>
</linearGradient>
<linearGradient id="paint103_linear_298_216" x1="198.268" y1="154.122" x2="189.577" y2="154.122" gradientUnits="userSpaceOnUse">
<stop stop-color="#541411"/>
<stop offset="1" stop-color="#8A0600"/>
</linearGradient>
<linearGradient id="paint104_linear_298_216" x1="192.498" y1="136.033" x2="183.807" y2="136.033" gradientUnits="userSpaceOnUse">
<stop stop-color="#541411"/>
<stop offset="1" stop-color="#8A0600"/>
</linearGradient>
<linearGradient id="paint105_linear_298_216" x1="192.498" y1="151.197" x2="183.807" y2="151.197" gradientUnits="userSpaceOnUse">
<stop stop-color="#541411"/>
<stop offset="1" stop-color="#8A0600"/>
</linearGradient>
<linearGradient id="paint106_linear_298_216" x1="188.011" y1="132.291" x2="179.32" y2="132.291" gradientUnits="userSpaceOnUse">
<stop stop-color="#541411"/>
<stop offset="1" stop-color="#8A0600"/>
</linearGradient>
<linearGradient id="paint107_linear_298_216" x1="188.011" y1="143.76" x2="179.32" y2="143.76" gradientUnits="userSpaceOnUse">
<stop stop-color="#541411"/>
<stop offset="1" stop-color="#8A0600"/>
</linearGradient>
<linearGradient id="paint108_linear_298_216" x1="188.011" y1="156.377" x2="179.32" y2="156.377" gradientUnits="userSpaceOnUse">
<stop stop-color="#541411"/>
<stop offset="1" stop-color="#8A0600"/>
</linearGradient>
<linearGradient id="paint109_linear_298_216" x1="182.955" y1="102.046" x2="175.44" y2="102.046" gradientUnits="userSpaceOnUse">
<stop stop-color="#541411"/>
<stop offset="1" stop-color="#8A0600"/>
</linearGradient>
<linearGradient id="paint110_linear_298_216" x1="182.955" y1="114.138" x2="175.44" y2="114.138" gradientUnits="userSpaceOnUse">
<stop stop-color="#541411"/>
<stop offset="1" stop-color="#8A0600"/>
</linearGradient>
<linearGradient id="paint111_linear_298_216" x1="182.955" y1="127.438" x2="175.44" y2="127.438" gradientUnits="userSpaceOnUse">
<stop stop-color="#541411"/>
<stop offset="1" stop-color="#8A0600"/>
</linearGradient>
<linearGradient id="paint112_linear_298_216" x1="182.955" y1="139.53" x2="175.44" y2="139.53" gradientUnits="userSpaceOnUse">
<stop stop-color="#541411"/>
<stop offset="1" stop-color="#8A0600"/>
</linearGradient>
<linearGradient id="paint113_linear_298_216" x1="182.955" y1="151.62" x2="175.44" y2="151.62" gradientUnits="userSpaceOnUse">
<stop stop-color="#541411"/>
<stop offset="1" stop-color="#8A0600"/>
</linearGradient>
<linearGradient id="paint114_linear_298_216" x1="177.412" y1="95.9123" x2="169.897" y2="95.9123" gradientUnits="userSpaceOnUse">
<stop stop-color="#541411"/>
<stop offset="1" stop-color="#8A0600"/>
</linearGradient>
<linearGradient id="paint115_linear_298_216" x1="177.412" y1="106.846" x2="169.897" y2="106.846" gradientUnits="userSpaceOnUse">
<stop stop-color="#541411"/>
<stop offset="1" stop-color="#8A0600"/>
</linearGradient>
<linearGradient id="paint116_linear_298_216" x1="177.412" y1="118.873" x2="169.897" y2="118.873" gradientUnits="userSpaceOnUse">
<stop stop-color="#541411"/>
<stop offset="1" stop-color="#8A0600"/>
</linearGradient>
<linearGradient id="paint117_linear_298_216" x1="177.412" y1="129.809" x2="169.897" y2="129.809" gradientUnits="userSpaceOnUse">
<stop stop-color="#541411"/>
<stop offset="1" stop-color="#8A0600"/>
</linearGradient>
<linearGradient id="paint118_linear_298_216" x1="177.412" y1="140.742" x2="169.897" y2="140.742" gradientUnits="userSpaceOnUse">
<stop stop-color="#541411"/>
<stop offset="1" stop-color="#8A0600"/>
</linearGradient>
<linearGradient id="paint119_linear_298_216" x1="173.532" y1="101.467" x2="164.909" y2="101.467" gradientUnits="userSpaceOnUse">
<stop stop-color="#541411"/>
<stop offset="1" stop-color="#8A0600"/>
</linearGradient>
<linearGradient id="paint120_linear_298_216" x1="173.532" y1="112.401" x2="164.909" y2="112.401" gradientUnits="userSpaceOnUse">
<stop stop-color="#541411"/>
<stop offset="1" stop-color="#8A0600"/>
</linearGradient>
<linearGradient id="paint121_linear_298_216" x1="173.532" y1="124.428" x2="164.909" y2="124.428" gradientUnits="userSpaceOnUse">
<stop stop-color="#541411"/>
<stop offset="1" stop-color="#8A0600"/>
</linearGradient>
<linearGradient id="paint122_linear_298_216" x1="173.532" y1="135.364" x2="164.909" y2="135.364" gradientUnits="userSpaceOnUse">
<stop stop-color="#541411"/>
<stop offset="1" stop-color="#8A0600"/>
</linearGradient>
<linearGradient id="paint123_linear_298_216" x1="173.532" y1="146.297" x2="164.909" y2="146.297" gradientUnits="userSpaceOnUse">
<stop stop-color="#541411"/>
<stop offset="1" stop-color="#8A0600"/>
</linearGradient>
<linearGradient id="paint124_linear_298_216" x1="169.165" y1="125.584" x2="160.474" y2="125.584" gradientUnits="userSpaceOnUse">
<stop stop-color="#541411"/>
<stop offset="1" stop-color="#8A0600"/>
</linearGradient>
<linearGradient id="paint125_linear_298_216" x1="169.165" y1="138.084" x2="160.474" y2="138.084" gradientUnits="userSpaceOnUse">
<stop stop-color="#541411"/>
<stop offset="1" stop-color="#8A0600"/>
</linearGradient>
<linearGradient id="paint126_linear_298_216" x1="164.731" y1="126.696" x2="156.04" y2="126.696" gradientUnits="userSpaceOnUse">
<stop stop-color="#541411"/>
<stop offset="1" stop-color="#8A0600"/>
</linearGradient>
<linearGradient id="paint127_linear_298_216" x1="164.731" y1="140.308" x2="156.04" y2="140.308" gradientUnits="userSpaceOnUse">
<stop stop-color="#541411"/>
<stop offset="1" stop-color="#8A0600"/>
</linearGradient>
<linearGradient id="paint128_linear_298_216" x1="159.188" y1="126.916" x2="150.497" y2="126.916" gradientUnits="userSpaceOnUse">
<stop stop-color="#541411"/>
<stop offset="1" stop-color="#8A0600"/>
</linearGradient>
<linearGradient id="paint129_linear_298_216" x1="159.188" y1="142.08" x2="150.497" y2="142.08" gradientUnits="userSpaceOnUse">
<stop stop-color="#541411"/>
<stop offset="1" stop-color="#8A0600"/>
</linearGradient>
<clipPath id="clip0_298_216">
<rect width="441" height="252" fill="white"/>
</clipPath>
</defs>
</svg>
